<svg width="541" height="422" viewBox="0 0 541 422" fill="none" xmlns="http://www.w3.org/2000/svg">
<g clip-path="url(#clip0_60_100)">
<path d="M481.332 0.1926C485.307 3.78223 491.977 0.1926 495.339 5.44571C494.473 6.22656 493.418 6.7668 492.278 7.01259C491.138 7.25838 489.954 7.20113 488.843 6.84654C475.327 3.85227 461.846 5.2531 448.365 7.00414C445.773 7.35434 443.112 7.52945 441.064 5.37567C445.371 0.752932 452.129 3.62463 456.821 0.122559L481.332 0.1926Z" fill="#FBF7F3"/>
<path d="M3.65919 231.137L0.157574 225.884V194.365L3.65919 189.112C4.33207 189.669 4.86028 190.38 5.1987 191.185C5.53712 191.99 5.67569 192.865 5.60259 193.735C4.36272 204.886 4.28644 216.135 5.37498 227.302C5.39472 228.029 5.25076 228.751 4.95376 229.415C4.65677 230.079 4.21433 230.667 3.65919 231.137Z" fill="#FAF5EF"/>
<path d="M232.858 418.323L229.356 421.825H194.34C194.202 421.596 194.112 421.341 194.076 421.076C194.041 420.811 194.059 420.541 194.132 420.284C194.204 420.026 194.328 419.786 194.496 419.579C194.664 419.371 194.873 419.2 195.11 419.076C207.716 417.412 220.252 415.083 232.858 418.323Z" fill="#FAF5EF"/>
<path d="M194.34 420.056V421.807H187.337L185.586 418.305C189.175 415.731 191.959 417.01 194.34 420.056Z" fill="#FCF9F5"/>
<path d="M3.65919 231.137C0.892913 217.129 1.80333 203.12 3.65919 189.112C8.33385 167.242 19.8717 148.838 33.8782 132.063C45.7486 117.845 58.3019 104.134 71.3805 91.054C101.775 60.6735 135.6 35.0208 175.886 18.9112C189.052 13.6581 201.728 7.84467 216.47 6.8816C236.622 5.55082 247.144 21.3102 248.79 37.0695C249.963 48.4162 249.683 60.726 259.295 69.3061C267.926 77.0632 277.941 80.3376 289.811 77.7986C309.893 73.5436 327.506 63.5452 345.26 53.6168C370.541 39.4509 393.529 21.2576 421.017 10.979C427.471 8.38223 434.195 6.51455 441.064 5.41073L465.575 2.24135C475.73 0.910566 485.359 4.53521 495.339 5.41073C519.027 12.2398 532.106 28.3668 535.783 52.3035C539.092 73.5961 532.684 92.9801 526.521 112.452C519.99 133.079 512.007 153.478 512.987 175.664C513.547 188.131 515.641 200.481 519.22 212.436C526.363 236.688 524.367 260.292 512.217 282.267C502.604 299.239 489.347 313.867 473.401 325.098C462.039 333.328 450.466 341.242 439.681 350.243C439.36 349.966 439.115 349.611 438.971 349.212C438.827 348.813 438.788 348.384 438.858 347.966C442.359 341.26 446.999 334.956 445.861 326.726C445.861 324.555 445.774 322.401 445.738 320.247C446.211 315.519 443.357 314.346 439.418 314.101C433.973 313.768 428.458 314.802 423.101 313.051C422.289 312.686 421.614 312.073 421.175 311.299C420.688 309.569 420.768 307.728 421.402 306.046C422.043 303.993 422.962 302.037 424.134 300.233C427.04 296.188 427.373 290.987 430.069 286.837C430.446 286.405 430.882 286.027 431.364 285.717C434.691 283.668 439.155 282.547 438.473 277.207C437.86 272.356 433.483 272.321 430.156 270.956C429.607 270.672 429.123 270.277 428.737 269.794C428.351 269.311 428.071 268.752 427.915 268.154C427.819 267.293 427.819 266.424 427.915 265.562C428.633 254.251 427.46 252.972 416.237 252.85C411.843 252.85 411.37 257.017 409.234 259.346C407.798 261.202 406.958 263.584 405.19 265.037C398.677 270.448 397.294 276.121 401.373 284.158C405.277 291.81 399.99 299.007 390.115 301.424C384.863 291.688 383.112 280.744 379.768 270.36C377.416 262.289 373.768 254.654 368.966 247.754C363.853 240.75 357.62 235.76 348.726 233.904C341.495 232.38 333.949 230.402 330.273 222.627C330.798 219.3 333.634 219.125 336.068 218.459C342.231 216.708 343.386 213.049 341.058 207.323C338.957 202.21 334.492 197.535 337.293 191.231C337.724 190.723 338.261 190.316 338.866 190.038C339.471 189.76 340.129 189.617 340.795 189.62C342.559 189.713 344.223 190.47 345.452 191.739C347.08 193.63 348.306 195.801 349.812 197.797C351.44 200.616 353.891 202.858 355.589 205.659C360.282 219.037 360.246 218.564 374.341 217.234C381.344 216.551 385.581 213.732 387.664 207.323C388.165 206.703 388.887 206.301 389.678 206.202C390.973 207.55 392.164 207.743 392.654 205.624C394.265 198.865 394.597 192.194 390.903 185.908C389.765 184.367 388.732 182.773 387.682 181.18C386.179 179.028 383.945 177.497 381.396 176.872C379.91 176.265 378.532 175.419 377.317 174.368C374.785 172.181 372.495 169.727 370.489 167.049C370.076 166.273 369.759 165.45 369.543 164.598C369.036 160.668 368.843 156.704 368.966 152.743C368.966 149.381 369.141 146.002 368.966 142.657C368.909 141.119 368.356 139.64 367.391 138.441C366.425 137.242 365.099 136.387 363.608 136.003C361.402 135.355 359.441 134.094 357.165 133.604C353.527 132.83 350.117 131.224 347.203 128.911C343.299 126.18 340.953 122.24 338.449 118.283C331.025 106.691 320.731 100.124 306.444 101.438C301.472 101.91 296.675 100.334 291.72 100.492C280.83 100.825 272.583 105.325 268.347 115.551C265.878 121.522 262.306 126.057 256.336 128.579C255.774 128.732 255.262 129.027 254.848 129.437C248.23 138.822 239.563 146.282 231.352 154.126C229.601 163.302 224.926 169.273 215.069 170.849C213.884 170.95 212.735 171.309 211.703 171.902C210.671 172.494 209.781 173.305 209.095 174.277C208.409 175.25 207.945 176.361 207.734 177.532C207.523 178.703 207.571 179.906 207.874 181.057C208.977 186.801 213.774 189.392 218.746 191.388C219.919 191.861 220.935 190.916 221.477 189.795C223.876 184.98 228.603 183.141 232.91 180.76C236.657 179.149 239.161 176.172 241.874 173.283C245.761 169.15 248.23 170.376 248.492 175.997C247.643 178.695 246.643 181.343 245.498 183.929C244.343 186.356 243.015 188.697 241.524 190.933C240.999 191.914 240.421 192.877 239.861 193.84C239.161 195.136 238.338 196.379 237.76 197.745C236.412 202.507 240.579 202.753 243.135 203.803C247.435 205.302 251.842 206.473 256.318 207.305C259.925 208.473 263.555 209.593 267.208 210.667C273.091 213.206 279.727 212.418 285.592 214.87C286.274 215.515 286.744 216.351 286.94 217.269C286.94 223.695 282.458 226.304 277.503 228.423C272.362 230.472 267.063 232.1 261.658 233.291C253.079 235.427 248.492 240.855 246.304 249.295C244.22 257.35 244.22 265.422 244.238 273.565C244.335 275.899 244.3 278.238 244.133 280.569C243.853 283.09 244.255 286.225 241.226 287.293C238.74 288.151 236.867 286.102 235.186 284.561C231.282 281.074 227.609 277.336 224.191 273.372C219.394 264.984 210.815 259.854 205.51 251.904C204.505 249.894 203.657 247.81 202.971 245.671C202.271 244.182 200.765 244.007 199.47 243.587C191.381 239.139 188.037 231.137 184.36 223.38C183.327 219.44 183.8 215.378 183.502 211.385C183.187 203.961 178.88 201.72 172.017 202.017C164.681 202.35 156.645 200.371 153.003 209.652C149.502 212.734 153.283 217.024 151.252 220.351C150.692 222.329 151.935 223.537 153.161 224.746C153.966 225.481 154.702 226.269 155.437 227.057C156.172 227.845 156.96 228.65 157.713 229.456C159.254 231.417 162.738 232.205 161.652 235.795C160.322 238.491 160.041 241.696 157.87 244.025C153.966 246.704 149.502 246.108 145.177 246.126C123.064 246.213 100.952 246.126 78.8214 246.126C68.7718 246.126 68.3166 247.211 70.8553 256.737C72.6061 263.251 77.1932 269.432 73.9017 276.751C65.4978 276.559 56.9713 277.277 48.725 276.016C22.7605 271.989 10.5049 254.093 3.65919 231.137Z" fill="#F6ECE0"/>
<path d="M194.34 420.056L185.586 418.305C157.73 411.949 144.634 391.882 139.084 366.142C137.106 356.984 134.83 351.626 124.605 353.254C123.94 353.377 123.117 352.484 122.382 352.063L123.555 350.803C127.336 348.737 131.503 349.367 135.53 349.367C162.002 349.367 188.475 349.367 214.947 349.367C234.941 349.472 254.918 349.367 274.895 349.367C276.721 349.449 278.55 349.302 280.34 348.929C281.11 348.701 281.915 348.509 282.703 348.316C284.227 347.971 285.659 347.299 286.898 346.347C288.137 345.394 289.155 344.184 289.881 342.801C291.632 340.121 292.665 337.005 295.554 335.236C297.619 334.12 299.951 333.593 302.295 333.713C324.968 333.713 347.641 333.082 370.296 334.045C374.516 334.938 376.319 338.58 378.788 341.452C381.764 346.162 385.213 350.382 390.711 352.344C399.605 353.587 408.639 352.449 417.498 354.095C419.476 354.462 421.665 354.095 422.068 356.826C396.331 368.803 371.031 381.691 344.034 390.919C309.946 402.563 275.017 410.688 239.826 417.902C237.505 418.212 235.163 418.335 232.823 418.27C220.129 420.424 207.261 420.109 194.34 420.056Z" fill="#F6ECE0"/>
<path d="M422.103 356.879C413.961 356.441 405.803 356.056 397.591 355.513C394.562 355.303 391.201 356.179 388.662 353.552C389.064 352.862 389.607 352.266 390.255 351.801C395.753 350.225 401.758 349.735 405.487 344.482C406.17 344.085 406.94 343.863 407.728 343.834C410.127 344.149 411.878 345.952 414.136 346.6C416.395 347.248 416.99 351.416 421.472 349.297C424.309 347.949 430.769 344.779 432.187 352.606C432.275 352.974 432.345 353.359 432.432 353.745C431.029 354.966 429.383 355.876 427.602 356.416C425.822 356.956 423.948 357.114 422.103 356.879Z" fill="#C88D80"/>
<path d="M439.541 348.789C439.561 349.247 439.608 349.703 439.681 350.155C437.709 352.078 435.177 353.323 432.45 353.71L432.187 353.394C431.592 344.849 431.032 344.394 422.575 346.933C419.074 347.966 415.992 349.122 414.066 344.762C414.364 342.083 415.082 338.861 417.936 338.756C424.501 338.476 429.736 334.291 436.021 333.503C436.46 333.532 436.888 333.648 437.282 333.843C437.675 334.039 438.026 334.31 438.315 334.641C440.206 337.828 439.716 341.522 440.504 344.954C440.419 346.281 440.093 347.58 439.541 348.789Z" fill="#C68C7F"/>
<path d="M73.534 276.664C71.1704 268.592 69.2095 260.379 66.3031 252.517C63.747 245.618 64.99 243.149 72.7461 243.254C98.0628 243.587 123.397 243.412 148.731 243.254C151.795 243.254 155.209 244.34 157.765 241.503C164.226 239.997 171.107 242.168 177.392 239.209C184.85 241.205 192.624 240.96 200.152 242.554C203.024 243.062 202.796 245.688 203.654 247.597C204.232 248.752 205.09 249.733 205.668 250.871C206.315 253.375 207.558 255.634 208.434 258.05C215.717 277.469 222.23 297.151 227.693 317.165C227.725 320.626 228.628 324.022 230.319 327.041C230.459 327.479 230.564 327.917 230.687 328.372C230.809 329.31 230.738 330.264 230.476 331.174C227.763 336.059 222.966 334.518 218.799 334.973C214.648 335.12 210.493 334.95 206.368 334.466C199.067 333.187 191.871 330.964 184.308 331.699C182.172 330.508 182.207 327.847 180.631 326.306C176.884 325.64 178.88 329.335 177.515 330.421C176.728 331.41 175.625 332.098 174.391 332.369C173.157 332.64 171.867 332.478 170.739 331.909C168.988 330.946 169.216 329.37 169.478 327.829C169.478 327.024 169.706 326.078 168.34 326.078C166.911 327.001 165.605 328.101 164.453 329.353C161.617 331.699 158.606 333.555 155.157 330.753C153.213 329.178 153.266 327.251 155.524 325.816C156.245 324.66 156.833 323.426 157.275 322.138C155.787 323.154 156.627 325.325 155.034 326.131C151.147 327.567 146.735 330.788 145.475 323.312C145.16 321.438 147.803 319.179 145.72 317.848C143.636 316.518 142.603 320.79 140.065 320.055C139.265 320.011 138.477 319.834 137.736 319.529C137.351 312.28 129.175 309.338 128.229 302.422C125.691 299.095 123.45 305.328 120.963 302.702C114.135 304.033 121.296 307.395 119.983 309.513C118.232 314.031 115.728 312.595 113.155 310.319C112.304 308.834 111.773 307.188 111.597 305.486C110.318 299.252 101.862 300.846 100.164 295.085C98.7594 294.517 97.4535 293.731 96.2945 292.756C94.7013 292.581 98.6406 289.166 94.7013 290.164C91.1996 291.04 90.2192 294.577 87.4354 296.048C85.1418 299.27 89.3963 305.276 82.8833 306.659C78.2086 302.369 77.8935 296.661 77.6309 290.9C77.331 287.817 76.5941 284.792 75.4424 281.917L73.534 276.664Z" fill="#ACACAC"/>
<path d="M75.4424 281.917C80.5547 289.324 79.1191 299.06 84.1964 306.432C85.672 307.276 86.8008 308.616 87.3829 310.214C89.0111 314.049 89.6414 318.181 90.972 322.103C92.7228 326.358 92.8629 331.051 94.6662 335.289C95.3752 336.389 95.9622 337.563 96.417 338.791C97.6776 345.637 101.897 348.211 108.673 347.914C113.172 347.721 117.864 347.091 122.206 349.262C122.585 349.501 122.872 349.861 123.021 350.284C123.171 350.706 123.173 351.167 123.029 351.591L122.504 352.151C117.479 351.118 115.221 354.533 114.555 358.297C113.277 365.599 107.552 368.803 102.457 372.306C95.9793 376.823 86.4024 376.035 81.9729 369.364C70.5401 352.081 57.8117 335.254 52.0165 315.082C46.8516 297.028 57.0764 286.68 75.5299 290.339L75.4424 281.917Z" fill="#F6ECE0"/>
<path d="M226.029 318.356C219.575 298.009 213.155 277.662 206.771 257.315C207.383 252.955 209.484 256.107 210.272 256.86C215.332 261.342 219.884 266.35 224.611 271.166C229.373 276.646 234.118 282.11 238.513 287.135C243.24 284.859 241.682 282.25 241.752 280.236C241.997 273.232 241.752 266.228 242.084 259.311C243.222 239.577 248.492 233.641 267.664 228.703C275 226.829 283.806 226.567 285.732 216.446C286.66 212.348 289.794 211.525 293.331 211.193C299.441 211.193 305.586 210.44 311.609 211.91C314.988 214.537 318.245 217.164 323.042 216.901C324.639 216.72 326.252 217.081 327.62 217.925C328.988 218.77 330.033 220.049 330.588 221.559C334.417 226.413 339.939 229.64 346.047 230.594C365.079 233.763 373.938 247.229 379.698 263.426C384.057 275.683 387.104 288.483 390.728 301.038C392.086 302.311 393.003 303.983 393.346 305.813C393.69 307.642 393.441 309.533 392.636 311.212C391.757 312.176 390.669 312.927 389.455 313.406C388.241 313.886 386.934 314.082 385.633 313.978C378.07 313.978 375.531 317.691 375.881 324.975C376.354 335.043 376.056 335.043 366.112 335.096C342.861 335.236 319.61 334.798 296.359 335.324C294.923 335.786 293.422 336.016 291.912 336.007C290.957 335.884 290.042 335.549 289.234 335.026C288.57 334.383 288.133 333.54 287.991 332.627C287.991 329.125 286.59 326.306 282.861 325.623C272.618 323.767 262.376 321.543 251.941 321.578C245.113 321.578 239.686 326.288 233.365 328.477C232.697 328.552 232.021 328.465 231.394 328.224C230.766 327.984 230.205 327.596 229.759 327.094L229.303 327.286C227.097 324.747 226.975 321.403 226.029 318.356Z" fill="#392D40"/>
<path d="M344.472 192.789L341.618 190.723C339.867 190.093 340.375 187.886 338.922 187.221C337.276 189.55 337.048 192.264 336.418 194.855C333.617 196.606 333.827 204.031 327.664 199.373C327.244 199.058 327.559 199.828 327.261 200.231C323.567 205.327 323.515 205.292 318.857 199.251C317.474 193.997 314.113 189.515 312.257 184.437C311.084 181.197 308.405 177.625 312.502 174.403C315.338 173.493 318.227 174.806 321.098 174.228C325.388 173.353 328.644 171.304 329.555 166.699C330.465 162.094 328.469 159.467 324.512 157.786C323.15 157.276 321.964 156.382 321.098 155.212C320.083 153.461 319.785 151.5 318.63 149.959C315.408 144.461 309.526 143.06 304.291 140.696C300.277 136.939 296.921 132.535 294.364 127.668C289.584 117.425 289.111 117.39 280.637 124.884C275.98 127.16 268.382 124.043 266.998 132.361C265.563 138.087 263.392 142.727 257.246 145.546C251.101 148.365 251.556 152.55 257.124 160.675C262.184 166.629 260.625 174.684 263.847 181.25C264.88 184.945 267.874 187.799 268.311 191.756C264.215 197.009 259.032 194.663 254.305 193.297C250.731 192.304 247.431 190.507 244.658 188.044C244.022 186.884 243.847 185.527 244.168 184.244C244.711 181.723 245.919 179.411 246.601 176.96C246.812 175.209 247.529 173.143 245.814 172.302C243.573 171.216 243.047 173.773 242.487 175.086C241.715 177.058 240.411 178.776 238.72 180.05C237.029 181.323 235.018 182.103 232.91 182.301C226.134 185.365 219.289 186.643 212.181 183.281C209.502 182.003 206.841 180.777 206.928 177.24C206.92 175.74 207.394 174.277 208.28 173.067C209.165 171.856 210.416 170.962 211.848 170.516C212.816 169.894 213.89 169.455 215.017 169.22C225.242 169.01 229.023 163.039 229.233 153.654C229.496 152.253 229.444 149.784 230.039 149.609C243.065 145.931 245.428 130.452 257.036 125.339C259.021 124.496 260.793 123.221 262.222 121.606C263.652 119.992 264.703 118.079 265.3 116.006C269.397 104.344 278.274 98.3033 290.547 98.2682C299.424 98.2376 308.293 98.8226 317.089 100.019C327.226 101.42 334.597 107.584 339.587 116.286C342.052 120.537 344.988 124.496 348.341 128.088C350.871 131.095 353.986 133.556 357.498 135.32C358.951 136.073 360.422 136.809 361.84 137.614C364.528 139.091 366.533 141.561 367.425 144.496C368.528 149.311 366.147 153.916 366.532 158.679C365.884 163.284 367.442 167.434 369.316 171.444C369.475 172.714 369.922 173.932 370.622 175.003C371.323 176.074 372.26 176.971 373.36 177.625C374.287 178.289 375.154 179.034 375.951 179.849C378.507 182.301 379.348 185.102 377.177 188.184C376.815 189.279 376.382 190.349 375.881 191.388C375.626 191.907 375.233 192.345 374.745 192.654C374.257 192.963 373.693 193.131 373.115 193.139C371.689 192.548 370.389 191.692 369.281 190.618C364.571 188.867 359.896 187.344 355.537 191.441C355.004 191.725 354.418 191.898 353.817 191.949C353.215 192 352.609 191.928 352.035 191.739C350.67 191.493 348.761 187.186 348.043 192.281C348.043 192.754 347.238 193.052 346.695 193.315C346.31 193.42 345.905 193.428 345.516 193.336C345.128 193.244 344.769 193.056 344.472 192.789Z" fill="#E65353"/>
<path d="M294.609 334.623C318.472 334.623 342.353 334.326 366.217 334.623C372.607 334.623 374.638 333.625 373.605 326.481C371.662 313.015 372.992 312.07 386.771 311.422C388.82 311.334 390.868 311.422 392.444 309.671C396.943 307.307 401.601 310.039 406.153 309.233C408.569 309.321 410.915 308.498 413.348 308.603C414.125 308.708 414.884 308.914 415.607 309.216C417.655 310.354 420.229 309.811 422.173 311.247C427.985 311.247 433.833 311.807 439.681 311.247C446.824 310.581 449.328 313.348 447.892 320.16C445.231 324.31 440.994 327.304 439.295 332.137C439.509 332.451 439.653 332.808 439.716 333.182C439.78 333.557 439.761 333.941 439.663 334.308C439.534 334.44 439.38 334.545 439.211 334.616C439.041 334.688 438.858 334.724 438.674 334.724C438.49 334.724 438.307 334.688 438.137 334.616C437.967 334.545 437.814 334.44 437.685 334.308H435.934C430.783 333.93 425.611 334.674 420.775 336.488C415.939 338.302 411.554 341.142 407.921 344.814H406.17C402.669 344.587 399.552 350.067 395.665 344.814C394.335 343.063 392.776 345.48 392.356 347.056C391.779 349.209 392.006 351.591 390.395 353.412C389.853 353.412 389.31 353.517 388.75 353.534C386.276 352.765 384.019 351.422 382.163 349.614C380.307 347.806 378.905 345.586 378.07 343.133C376.441 340.752 376.214 337.302 372.817 336.322L303.538 336.199C300.369 336.199 297.182 336.024 294.276 337.652C293.401 336.497 292.875 335.429 294.609 334.623Z" fill="#D08B7C"/>
<path d="M406.03 94.8712C399.395 68.6057 411.948 47.2255 439.296 38.3653C440.361 37.9835 441.464 37.7192 442.587 37.5773C453.582 35.5286 455.666 37.3847 455.07 48.6789C452.864 58.7824 452.444 69.1835 450.186 79.2695C449.991 80.1696 449.666 81.0367 449.223 81.8435C448.752 82.573 448.109 83.1746 447.349 83.5946C441.484 85.8534 435.584 88.1122 429.719 90.4236C428.919 90.733 428.1 90.9903 427.267 91.1941C420.194 92.1221 413.716 97.2001 406.03 94.8712Z" fill="#FBBC30"/>
<path d="M87.7681 132.641C87.9111 122.49 92.0711 112.81 99.3366 105.721C106.602 98.6313 116.381 94.7111 126.531 94.8187C147.383 95.2389 164.926 113.24 164.383 133.692C163.841 154.144 146.175 171.392 125.866 171.269C105.241 171.164 87.5405 153.268 87.7681 132.641Z" fill="#FBBD34"/>
<path d="M446.456 82.614C446.94 82.4926 447.431 82.4048 447.927 82.3513C453.495 83.542 453.179 88.7951 454.93 92.5774C456.448 96.1179 457.319 99.9014 457.504 103.749C457.732 104.992 458.082 106.2 458.362 107.426C458.772 110.384 459.386 113.309 460.2 116.181C460.445 120.682 464.787 125.69 458.624 129.419C433.921 132.396 415.414 117.95 408.079 98.2157C413.646 92.1046 422.085 92.5774 428.861 89.373C434.813 87.5519 441.029 86.2211 446.456 82.614Z" fill="#8DD59C"/>
<path d="M491.837 104.852C494.078 106.831 494.358 108.582 492.503 111.383C488.508 117.11 483.479 122.039 477.673 125.917C473.104 128.158 471.388 124.674 470.005 121.68C467.799 116.917 464.647 112.714 462.494 107.951C461.705 103.557 459.482 99.5485 456.173 96.5522C455.547 95.4023 455.216 94.1146 455.21 92.805C455.157 91.4742 455.559 90.1651 456.348 89.0928C457.017 88.5248 457.818 88.1335 458.677 87.9546C468.271 87.9546 474.819 94.9587 483.031 98.2682C486.077 100.334 489.999 101.192 491.837 104.852Z" fill="#E65555"/>
<path d="M407.938 311.002C402.741 312.062 397.35 311.625 392.391 309.741C391.638 306.904 389.748 304.295 390.64 301.126C392.425 299.263 394.319 297.509 396.313 295.873C401.566 292.038 402.143 287.608 398.344 282.565C393.547 276.191 394.685 270.623 400.865 266.263C404.174 263.951 404.787 259.942 407.623 257.508C408.29 258.076 408.838 258.771 409.234 259.553C409.631 260.334 409.869 261.186 409.934 262.06C410.874 276.828 410.938 291.639 410.127 306.414C410.008 308.166 409.225 309.807 407.938 311.002Z" fill="#A2E8AC"/>
<path d="M336.015 194.365C336.4 190.635 334.877 186.293 339.342 183.859C341.793 186.766 339.219 188.727 338.011 190.951C337.525 194.091 338.144 197.303 339.762 200.038C347.728 216.025 346.975 217.724 330.623 221.681C326.911 219.037 322.552 219.335 318.367 218.88C315.443 218.564 311.276 219.055 313.377 213.732C313.159 211.407 313.699 209.074 314.917 207.082C316.136 205.09 317.966 203.546 320.135 202.683C322.832 203.943 321.151 207.726 323.637 209.091C328.854 205.046 334.264 201.229 336.015 194.365Z" fill="#E2665D"/>
<path d="M388.872 206.622C388.172 215.22 384.005 219.93 374.866 219.23C373.691 219.285 372.521 219.419 371.364 219.633C367.022 219.948 362.4 221.261 358.408 220.228C352.63 218.74 357.13 212.471 354.801 208.969C354.126 207.692 353.586 206.348 353.191 204.959C353.457 204.674 353.78 204.447 354.139 204.294C354.497 204.14 354.884 204.062 355.274 204.066C356.061 204.173 356.832 204.379 357.568 204.679C362.312 208.969 366.952 205.064 371.574 204.451C375.584 204.784 379.943 202.367 384.057 205.554C386.088 202.437 381.921 196.134 388.435 194.313C391.831 198.393 391.516 202.507 388.872 206.622Z" fill="#E17766"/>
<path d="M407.939 311.002L407.676 257.403C410.442 255.389 409.689 249.856 414.872 250.398C413.278 258.068 413.839 265.387 418.373 272.059C419.029 276.122 418.987 280.267 418.251 284.316C417.601 286.413 417.218 288.584 417.113 290.777C417.131 293.737 416.92 296.693 416.482 299.62C415.563 302.193 415.245 304.942 415.555 307.657C415.544 308.433 415.266 309.182 414.767 309.776L407.939 311.002Z" fill="#F1EADC"/>
<path d="M201.343 243.289C193.149 242.098 184.238 246.458 176.744 240.032C175.644 239.684 174.659 239.041 173.897 238.174C173.135 237.307 172.624 236.248 172.42 235.112C172.035 230.752 167.692 228.405 166.887 224.273C166.887 219.545 169.969 219.598 173.33 219.895C175.678 220.988 177.84 222.441 179.738 224.203C181.734 225.639 183.66 222.749 185.638 224.098C188.755 228.598 192.134 232.853 194.883 237.651C195.51 238.945 196.487 240.037 197.703 240.805C198.919 241.572 200.325 241.984 201.763 241.993L201.956 242.781L201.343 243.289Z" fill="#EDC4BF"/>
<path d="M416.833 271.586C410.687 265.02 408.586 258.085 414.872 250.381C429.754 250.223 433.325 254.688 428.791 267.786C428.03 269.356 426.905 270.721 425.511 271.769C424.116 272.817 422.491 273.516 420.772 273.81C419.217 273.616 417.802 272.817 416.833 271.586Z" fill="#EFC4BE"/>
<path d="M245.113 187.361C252.747 188.237 259.225 196.291 267.874 191.021C272.934 188.149 278.221 190.863 283.386 190.303C285.662 190.618 287.973 190.898 289.216 193.262C284.471 199.671 277.626 195.013 272.093 196.764C275.227 200.932 279.604 204.644 280.515 210.475C279.925 211.648 278.91 212.551 277.676 213C276.443 213.45 275.085 213.41 273.879 212.891C270.377 208.338 266.631 205.046 260.065 204.399C251.609 203.541 245.253 197.219 238.303 192.684C238.022 191.634 238.565 191.091 239.493 190.776C241.489 189.865 241.822 186.135 245.113 187.361Z" fill="#E45A57"/>
<path d="M150.71 210.002C152.46 202.35 156.47 198.025 164.996 199.496C167.268 199.881 169.588 199.881 171.859 199.496C180.351 198.112 184.92 201.544 185.638 210.107C184.448 211.146 183.015 211.868 181.471 212.208C175.25 212.667 169.008 212.801 162.773 212.611C158.693 212.068 154.071 213.627 150.71 210.002Z" fill="#FEFDFD"/>
<path d="M280.129 210.124C275.122 207.603 275.525 199.128 268.136 199.11C267.739 198.519 267.571 197.803 267.664 197.097C267.931 196.273 268.465 195.563 269.182 195.077C269.899 194.592 270.757 194.36 271.621 194.418H288.778C290.809 195.783 291.405 197.92 292.122 200.108C292.753 204.521 293.873 208.864 292.298 213.399C291.039 213.397 289.796 213.673 288.658 214.209C287.52 214.745 286.514 215.527 285.715 216.498C285.277 216.498 285.067 216.288 285.102 215.85C284.436 213.031 277.101 216.078 280.129 210.124Z" fill="#E55655"/>
<path d="M229.163 153.654C229.549 165.683 228.13 167.434 216.558 170.026C212.898 170.831 208.731 171.777 208.609 176.54C208.486 181.302 213.354 180.567 216.172 181.985C221.74 184.769 227.413 181.985 233.033 182.195C229.058 186.345 220.777 186.45 222.16 195.136C216.908 194.155 213.406 191.371 209.904 188.989C208.016 187.859 206.531 186.164 205.657 184.144C204.784 182.124 204.567 179.88 205.037 177.73C205.895 173.02 208.539 168.975 213.284 168.712C223.071 167.995 227.43 162.409 229.163 153.654Z" fill="#E4645D"/>
<path d="M388.872 206.622C387.944 202.525 390.623 197.867 386.911 194.207C385.54 193.448 384.378 192.358 383.532 191.038C380.556 187.536 379.173 182.598 374.621 180.374L372.747 178.623C370.996 176.872 368.878 175.559 367.495 173.37C365.954 168.835 362.575 164.72 364.256 159.362C371.259 156.998 367.757 165 371.066 166.261C372.778 169.235 375.297 171.664 378.332 173.265L381.466 175.016C383.55 177.292 386.596 178.238 388.802 180.269L392.164 183.771C392.584 189.024 394.44 193.945 393.915 199.268C393.599 202.175 393.915 205.222 390.413 206.465L388.872 206.622Z" fill="#F4DCD1"/>
<path d="M238.285 192.614C245.498 192.246 249.56 198.48 255.496 200.826C258.034 201.825 261.081 204.013 263.164 203.348C271.638 200.616 272.146 206.29 273.179 211.788C272.093 212.417 270.861 212.748 269.607 212.748C268.353 212.748 267.121 212.417 266.035 211.788C262.327 211.65 258.714 210.578 255.531 208.671C252.187 206.447 248.282 205.904 244.553 204.731C240.299 203.4 235.799 201.684 236.202 195.731L238.285 192.614Z" fill="#E1675E"/>
<path d="M420.317 273.162L428.791 267.804C429.403 268.417 430.034 269.029 430.647 269.66C429.911 275.263 430.104 280.919 429.771 286.54C428.195 290.305 427.162 294.262 425.499 297.992C425.166 300.916 421.07 303.052 423.661 306.624L421.91 309.583C420.893 310.388 419.67 310.888 418.382 311.027C417.093 311.167 415.792 310.939 414.627 310.371L414.854 309.811C414.854 309.373 414.854 308.936 414.854 308.498C413.611 305.661 415.274 303.245 416.027 300.741C416.675 294.77 416.815 288.711 418.303 282.828C418.776 279.536 417.235 275.876 420.317 273.162Z" fill="#F3E8DC"/>
<path d="M463.789 106.901C467.117 111.144 469.84 115.829 471.878 120.822C472.876 123.571 474.032 126.075 477.673 125.97C472.228 132.116 466.188 135.005 458.607 129.472C462.354 124.901 457.381 120.331 458.607 115.761C458.183 115.238 457.91 114.61 457.818 113.943C457.725 113.277 457.817 112.597 458.082 111.979C459.045 109.142 458.8 105.062 463.789 106.901Z" fill="#D9BEB5"/>
<path d="M491.837 104.852C488.566 103.945 485.539 102.318 482.978 100.089C481.595 92.6999 475.835 85.8883 480.002 77.7986C481.07 75.7323 479.301 75.4697 478.251 74.6467C471.125 68.9383 471.248 68.413 479.301 64.3156C480.109 64.1657 480.944 64.257 481.7 64.5782C485.564 68.0123 488.026 72.7504 488.616 77.8861C488.756 78.9017 488.038 81.1956 490.699 80.0574C491.055 80.0726 491.403 80.1614 491.723 80.3181C492.042 80.4748 492.325 80.6961 492.555 80.9679C494.113 83.8396 492.45 86.8864 493.08 89.7231C492.363 93.698 491.417 97.6903 493.518 101.56L491.837 104.852Z" fill="#8BD097"/>
<path d="M477.971 47.383C482.768 48.6438 485.499 52.2509 487.933 56.1382C485.429 57.8893 482.12 57.2939 479.617 59.0624C477.479 60.0524 475.115 60.4515 472.771 60.2181C469.777 58.9924 471.283 55.3327 469.182 53.6167C467.046 50.6575 463.842 49.4317 460.568 48.3636C457.767 46.2974 456.156 43.9685 458.659 40.624H463.912C466.766 41.9023 469.812 42.6902 472.666 43.8985C473.139 46.8752 475.415 47.278 477.971 47.383Z" fill="#80C28B"/>
<path d="M168.078 224.22C169.461 227.933 175.308 229.473 173.33 234.832C169.163 237.721 165.101 237.843 161.074 234.376C159.621 232.363 155.507 233.081 155.822 229.281C154.071 225.779 152.53 222.119 155.822 218.932C158.781 216.008 162.247 217.724 165.451 219.107C167.535 220.158 166.817 222.697 168.078 224.22Z" fill="#F9F8FA"/>
<path d="M428.808 286.943C428.125 281.024 424.816 274.843 430.647 269.642C436.144 269.292 440.626 270.518 441.046 277.084C441.519 284.456 436.267 286.085 430.541 287.083C430.437 287.22 430.299 287.33 430.141 287.4C429.982 287.471 429.809 287.5 429.637 287.486C429.464 287.472 429.298 287.415 429.153 287.32C429.008 287.225 428.89 287.095 428.808 286.943Z" fill="#EFC5BF"/>
<path d="M344.472 192.789L346.66 192.614C348.411 192.089 350.372 192.089 351.913 190.863H355.414C358.653 191.441 362.417 190.776 364.273 194.558C364.588 194.715 365.096 196.466 365.149 194.418C365.105 193.835 365.105 193.249 365.149 192.667C366.269 190.005 367.215 187.063 371.101 189.165L372.852 192.667C373.097 192.999 373.325 193.332 373.588 193.665C373.85 193.997 373.588 194.488 373.588 194.89C371.627 200.651 370.611 207.568 361.525 203.873C359.424 203.033 357.865 207.27 355.309 204.924C355.309 199.933 350.547 200.091 347.798 198.077C346.037 196.82 344.842 194.921 344.472 192.789Z" fill="#E45F59"/>
<path d="M479.547 57.9419C481.735 54.4398 484.799 55.3854 487.88 56.1908C489.969 58.6776 491.439 61.6239 492.17 64.7884C492.345 70.2342 492.783 75.7149 490.104 80.7754C489.526 84.1899 488.248 82.9292 487.688 80.9505C486.179 75.4075 484.041 70.0553 481.315 64.9986C479.459 62.9148 477.358 60.9712 479.547 57.9419Z" fill="#7DC189"/>
<path d="M161.074 234.376L173.33 234.832L176.832 240.085C170.984 246.616 164.401 243.587 157.888 241.556C157.345 238.404 156.295 235.024 161.074 234.376Z" fill="#60578B"/>
<path d="M439.348 334.326C438.175 331.524 433.395 333.905 433.22 330.683C432.958 326.148 438.052 329.195 439.716 326.954C440.591 325.763 444.128 327.899 442.937 323.697C441.607 319.004 442.184 318.846 447.804 320.195V327.444C447.804 331.314 442.972 332.032 442.447 335.867C442.289 336.97 440.083 335.656 439.348 334.326Z" fill="#CD8B7D"/>
<path d="M371.172 166.349C366.042 166.891 369.281 159.152 364.361 159.449C364.676 154.319 365.009 149.206 365.324 144.075C365.525 143.696 365.812 143.369 366.161 143.12C366.511 142.871 366.913 142.706 367.337 142.64C368.203 142.656 369.042 142.944 369.736 143.463C370.979 146.247 369.333 149.434 370.926 152.218L371.172 166.349Z" fill="#F0B8B0"/>
<path d="M490.104 80.7054C489.614 75.2246 488.353 69.6563 492.17 64.7184C497.51 71.7225 496.127 79.8473 495.549 87.7971C489.981 87.7971 494.604 82.2288 491.75 80.7929L490.104 80.7054Z" fill="#79BB85"/>
<path d="M439.348 334.326C443.2 333.292 444.986 329.72 447.804 327.427C448.23 331.388 447.702 335.394 446.264 339.111C444.827 342.827 442.521 346.145 439.541 348.789C439.541 347.458 439.401 346.145 439.348 344.832C438.003 341.459 438.003 337.699 439.348 334.326Z" fill="#C29085"/>
<path d="M168.078 224.22C167.503 223.842 167.039 223.32 166.732 222.705C166.424 222.09 166.285 221.405 166.327 220.718C165.714 218.372 167.447 217.829 169.023 217.216C173.908 216.078 180.578 218.337 181.979 210.475L185.586 210.125C185.586 214.765 185.586 219.405 185.586 224.133C182.854 223.082 182.679 232.345 178.583 225.884C180.053 220.858 174.608 222.872 173.33 220.631C171.877 222.259 167.885 220.14 168.078 224.22Z" fill="#E7CBC7"/>
<path d="M390.29 206.622C393.267 201.369 392.584 195.871 391.621 190.513C390.952 188.328 391.153 185.969 392.181 183.929C396.821 190.058 395.805 197.149 395.193 204.013C395.07 205.589 394.912 211.525 390.29 206.622Z" fill="#EE9C96"/>
<path d="M453.127 48.9064C453.477 38.4002 453.477 38.4002 439.348 38.4002C445.668 34.0401 451.604 32.7969 456.856 40.1512C457.014 44.6339 458.835 49.2041 456.156 53.5467C455.193 54.5798 454.177 55.2977 452.812 54.1771C452.297 52.4374 452.409 50.5724 453.127 48.9064Z" fill="#EBE1B7"/>
<path d="M236.184 195.854C239.09 200.389 242.47 203.856 248.44 204.294C249.899 204.355 251.316 204.802 252.546 205.59C253.776 206.377 254.776 207.477 255.443 208.776C249.18 208.231 243.075 206.514 237.445 203.716C233.015 201.614 233.138 199.058 236.184 195.854Z" fill="#DF796A"/>
<path d="M224.576 271.166C219.569 269.24 217.135 264.337 213.091 261.307C211.095 259.819 210.535 255.827 206.666 257.315C204.442 255.459 204.687 252.902 204.687 250.398C204.773 250.241 204.9 250.11 205.054 250.019C205.208 249.928 205.383 249.88 205.562 249.88C205.742 249.88 205.917 249.928 206.071 250.019C206.225 250.11 206.352 250.241 206.438 250.398L224.576 271.166Z" fill="#4F4352"/>
<path d="M493.536 101.648C485.814 98.5834 491.049 93.698 491.785 89.3905C492.019 89.1374 492.301 88.9339 492.615 88.7921C492.929 88.6503 493.269 88.573 493.613 88.5648C493.958 88.5566 494.3 88.6178 494.621 88.7446C494.941 88.8713 495.233 89.0612 495.479 89.3029C498.858 94.1008 495.479 97.7779 493.536 101.648Z" fill="#83C48E"/>
<path d="M150.71 210.002L163.07 210.44C162.878 213.487 160.252 213.434 158.291 213.942C156.33 214.45 154.789 215.483 154.982 217.847C154.561 221.104 155.91 224.518 154.124 227.635L152.373 225.884C151.334 224.05 150.164 222.295 148.871 220.631C149.922 218.582 150.85 216.656 148.871 214.467C146.893 212.278 149.011 211.053 150.71 210.002Z" fill="#E7CBC7"/>
<path d="M455.21 52.6887C456.576 48.6088 453.792 43.9335 456.751 40.0988L458.502 40.6066C458.274 43.5833 458.887 46.1398 462.004 47.4356C462.614 47.9944 463.044 48.7232 463.238 49.5283C463.431 50.3333 463.379 51.1779 463.089 51.9533C462.743 52.713 462.206 53.3705 461.531 53.8619C459.202 55.0001 456.839 56.0332 455.21 52.6887Z" fill="#89D298"/>
<path d="M428.948 89.3029L408.166 98.1456L406.118 94.8536C413.751 93.4878 420.824 89.4079 428.948 89.3029Z" fill="#E6DDAC"/>
<path d="M154.071 227.635C154.388 223.9 153.911 220.14 152.671 216.603C158.781 214.45 164.926 211.578 169.916 218.827C169.198 218.785 168.483 218.942 167.849 219.282C167.215 219.622 166.688 220.132 166.327 220.753C156.032 218.88 156.032 218.88 155.822 229.281L154.071 227.635Z" fill="#D6C9D2"/>
<path d="M266.123 211.876H273.266C275.73 212.078 278.191 211.462 280.269 210.125C279.779 213.889 284.699 212.944 285.242 215.815C278.624 214.992 271.971 215.203 266.123 211.876Z" fill="#E2665F"/>
<path d="M428.808 286.943C429.382 287.07 429.972 287.117 430.559 287.083C430.299 292.244 428.561 297.222 425.552 301.424C423.941 300.671 424.921 298.727 423.801 297.729C425.342 294.069 425.727 289.884 428.808 286.943Z" fill="#B8ADAB"/>
<path d="M356.832 136.826C354.713 136.341 352.777 135.258 351.253 133.706C349.73 132.155 348.683 130.199 348.236 128.071C351.738 128.946 354.661 131.783 358.583 131.573C360.211 134.042 354.889 134.235 356.832 136.826Z" fill="#EB7F7C"/>
<path d="M347.851 198.025C351.352 199.303 356.902 198.147 355.362 204.871L353.261 205.011C350.742 203.337 348.842 200.883 347.851 198.025Z" fill="#E26B5F"/>
<path d="M356.832 136.826C355.082 134.27 357.13 133.026 358.583 131.573L364.168 134.83C364.342 134.991 364.481 135.186 364.578 135.403C364.674 135.62 364.725 135.854 364.729 136.091C364.729 136.581 364.729 136.809 364.571 136.809C364.078 137.37 363.469 137.818 362.785 138.12C362.102 138.423 361.361 138.572 360.614 138.56L356.832 136.826Z" fill="#F1BAB2"/>
<path d="M364.168 136.704V134.83C368.58 134.007 369.263 137.772 370.926 140.311C369.963 141.221 370.699 142.885 369.403 143.638H367.652C366.164 141.466 363.363 139.978 364.168 136.704Z" fill="#F0B3AC"/>
<path d="M388.82 180.357C385.493 179.814 382.254 179.114 381.484 175.104C384.898 175.542 387.857 176.592 388.82 180.357Z" fill="#EEA49D"/>
<path d="M495.479 89.3029H491.785C488.651 86.4312 493.08 83.4895 491.785 80.5477C494.761 81.9836 492.503 86.2211 495.584 87.5519C495.46 88.1268 495.425 88.7173 495.479 89.3029Z" fill="#7DC189"/>
<path d="M338.011 190.863C338.449 188.499 338.904 186.135 339.342 183.771C344.594 184.577 340.427 188.499 341.618 190.653L338.011 190.863Z" fill="#F2C5BB"/>
<path d="M369.316 143.585L370.839 140.258C370.839 144.215 370.839 148.173 370.839 152.13C368.213 149.749 369.806 146.509 369.316 143.585Z" fill="#EEA09A"/>
<path d="M378.35 173.353C373.868 173.09 371.627 170.551 371.084 166.349C374.085 167.996 376.593 170.414 378.35 173.353Z" fill="#EFABA5"/>
<path d="M472.718 43.8635C471.104 44.0529 469.468 43.8546 467.945 43.2852C466.423 42.7157 465.058 41.7915 463.964 40.589C465.582 40.3398 467.236 40.51 468.769 41.0833C470.302 41.6567 471.662 42.6139 472.718 43.8635Z" fill="#82C28D"/>
<path d="M423.818 297.676L425.569 301.354C424.939 303.105 424.309 304.856 423.696 306.607C419.406 303.56 424.169 300.706 423.818 297.676Z" fill="#A89D9E"/>
<path d="M245.113 187.361L239.476 190.723C240.748 188.388 242.032 186.054 243.327 183.719C243.818 183.001 244.378 182.913 245.078 183.561L245.113 187.361Z" fill="#E1675E"/>
<path d="M148.924 220.631C152.425 220.823 152.425 223.38 152.425 225.884C150.92 224.343 147.068 224.308 148.924 220.631Z" fill="#EEC9C3"/>
<path d="M414.627 310.354L421.91 309.566L422.173 311.317C419.686 310.809 416.517 315.607 414.627 310.354Z" fill="#D8AC9F"/>
<path d="M201.343 243.289C201.517 242.869 201.658 242.436 201.763 241.993C202.954 241.993 204.389 241.696 204.495 243.604C203.356 245.075 204.74 247.247 203.129 248.595C201.01 247.352 201.501 245.145 201.343 243.289Z" fill="#817980"/>
<path d="M245.008 183.649C244.437 183.796 243.846 183.849 243.257 183.806C243.477 181.13 244.688 178.632 246.654 176.802C247.424 179.429 246.024 181.495 245.008 183.649Z" fill="#F1BBB2"/>
<path d="M203.094 248.647C203.321 246.896 202.709 244.97 204.459 243.657L206.403 250.416H204.652C204.179 249.803 203.654 249.208 203.094 248.647Z" fill="#544857"/>
<path d="M477.971 47.3831C475.012 47.9784 471.755 48.994 472.718 43.881L477.971 47.3831Z" fill="#85C992"/>
<path d="M122.557 350.207C117.619 350.207 112.7 350.207 107.762 350.207C96.7497 350.207 95.5066 349.104 94.2285 337.95C96.5921 335.096 99.9362 335.341 103.105 335.341C162.819 335.248 222.539 335.248 282.265 335.341C284.307 335.272 286.347 335.532 288.306 336.112C291.475 337.092 292.087 339.158 290.792 342.013C289.566 345.62 286.415 347.511 283.789 349.84L283.001 350.12H282.178C228.977 350.05 175.77 350.079 122.557 350.207Z" fill="#ABABAB"/>
<path d="M122.557 350.207C125.06 347.213 128.492 348.351 131.538 348.351C178.67 348.351 225.79 348.351 272.899 348.351C276.089 348.062 279.296 348.668 282.16 350.102C281.822 350.799 281.236 351.344 280.518 351.632C279.799 351.92 278.999 351.93 278.274 351.661C257.33 350.374 236.328 350.374 215.385 351.661C184.57 352.256 153.739 352.326 122.907 351.451C122.861 351.019 122.743 350.599 122.557 350.207Z" fill="#716872"/>
<path d="M215.35 351.731C217.415 349.367 220.199 350.12 222.738 350.12C238.752 350.12 254.784 350.12 270.833 350.12C273.371 350.12 276.085 349.349 278.239 351.661L215.35 351.731Z" fill="#655B66"/>
<path d="M289.391 343.203L290.302 337.95C289.906 337.444 289.658 336.838 289.584 336.199C289.7 335.563 290.035 334.987 290.529 334.571L294.609 334.728C294.486 335.726 294.381 336.707 294.276 337.705C293.576 340.384 293.348 343.291 290.634 344.954C290.273 344.825 289.959 344.588 289.737 344.275C289.515 343.962 289.394 343.588 289.391 343.203Z" fill="#5A4F5D"/>
<path d="M289.391 343.203L290.634 344.849C289.111 347.563 287.78 350.505 283.806 349.892C283.859 346.163 287.903 345.742 289.391 343.203Z" fill="#5C515E"/>
<path d="M372.765 336.339C377.65 336.164 378.175 339.404 378.017 343.151C375.058 341.82 374.673 338.546 372.765 336.339Z" fill="#DDB0A2"/>
<path d="M407.939 344.832C410.232 337.723 422.803 331.051 429.193 333.31C431.403 333.862 433.66 334.208 435.934 334.343C430.541 336.917 426.077 341.768 419.091 340.279C416.08 339.631 417.183 344.044 414.924 344.832C413.996 345.83 414.469 347.528 413.173 348.334C410.372 348.614 409.689 345.882 407.939 344.832Z" fill="#CD8B7D"/>
<path d="M413.086 348.334C413.012 347.644 413.137 346.947 413.448 346.326C413.758 345.705 414.24 345.187 414.837 344.832C417.831 348.159 420.089 345.41 423.013 344.359C426.234 343.186 430.016 341.715 433.518 345.077C437.019 348.439 431.557 350.505 432.275 353.429C429.351 350.19 426.164 350.067 412.648 352.624C408.901 350.733 418.443 350.435 413.086 348.334Z" fill="#BD8C82"/>
<path d="M390.43 353.429C390.248 351.128 389.95 348.837 389.538 346.565C388.47 341.767 393.197 342.923 395.088 341.312C397.766 339.141 397.889 341.435 398.151 343.904C398.449 346.986 399.797 346.163 400.9 343.991C403.351 339.088 404.647 342.888 406.153 344.762C404.104 353.71 395.998 351.293 390.43 353.429Z" fill="#CD8B7C"/>
<path d="M439.348 334.343V344.849C436.162 341.785 438.157 337.845 437.597 334.343H439.348Z" fill="#CD8B7D"/>
<path d="M131.311 289.972C130.33 283.616 133.849 281.409 140.432 281.724C147.628 282.092 154.124 287.958 153.616 294.63C153.231 299.533 152.828 304.663 145.667 304.646C143.75 304.663 141.85 304.293 140.079 303.558C138.309 302.822 136.705 301.737 135.364 300.367C134.024 298.996 132.973 297.369 132.277 295.583C131.58 293.797 131.252 291.888 131.311 289.972Z" fill="#CACACA"/>
<path d="M129.647 301.178C132.099 301.476 133.499 302.369 131.836 305.013C131.066 306.239 130.225 308.095 132.449 308.008C141.921 307.57 136.633 315.012 138.401 318.671C139.732 321.123 138.804 323.924 139.802 326.498C140.128 328.079 139.827 329.724 138.962 331.086C130.908 333.012 127.669 331.541 125.288 324.73C123.905 326.901 122.522 329.002 119.65 329.055C118.435 329.15 117.218 328.888 116.149 328.302C115.834 328.073 115.581 327.769 115.412 327.417C115.244 327.065 115.166 326.678 115.186 326.288C115.028 324.187 119.09 322.401 115.606 320.072C114.916 319.825 114.276 319.458 113.715 318.987C113.346 318.314 113.193 317.543 113.277 316.78C120.298 313.103 122.784 304.821 129.647 301.178Z" fill="#A8A8A8"/>
<path d="M204.845 332.469L218.746 332.68C218.898 332.893 219 333.137 219.046 333.395C219.091 333.652 219.077 333.917 219.007 334.169C218.936 334.421 218.81 334.654 218.638 334.851C218.466 335.047 218.251 335.203 218.011 335.306C211.725 336.882 205.317 335.709 198.979 336.077C181.471 336.514 164.068 335.166 146.665 336.812C129.437 336.812 112.209 337.25 94.9814 336.637C92.1101 331.384 96.4171 331.244 99.551 330.298C106.134 329.948 112.717 330.298 119.3 330.106C127.441 330.316 135.583 333.608 143.811 330.106C152.811 330.894 161.862 330.876 170.844 331.734C174 331.84 177.154 331.492 180.211 330.701C188.229 332.925 196.703 330.508 204.845 332.469Z" fill="#645D68"/>
<path d="M85.8947 294.174C89.9216 292.966 90.1667 285.647 96.5571 287.993C101.985 290.007 96.1719 290.97 96.4171 292.423C98.1679 294.49 99.9187 294.647 101.669 292.423C103.998 295.733 105.066 300.268 110.844 299.638C113.96 299.305 113.855 302.369 113.943 304.663C112.472 305.416 110.441 305.679 111.071 308.165C112.472 314.574 108.76 314.924 104.068 313.996C100.724 313.401 97.0649 313.261 95.9969 309.076C96.0458 308.686 96.1793 308.312 96.388 307.979C96.5966 307.646 96.8755 307.363 97.2049 307.15C98.0103 306.116 100.444 307.044 100.164 304.681C99.6467 304.859 99.1434 305.076 98.6581 305.328C97.6513 305.754 96.5345 305.847 95.4716 305.591C94.7922 305.315 94.191 304.876 93.7208 304.313C92.4594 302.488 90.8166 300.958 88.9061 299.83C87.5405 298.062 84.9668 296.941 85.8947 294.174Z" fill="#ABABAB"/>
<path d="M180.333 332.54L143.566 332.399C142.113 330.981 139.75 332.399 138.314 330.823V325.57C138.435 325.003 138.691 324.473 139.06 324.025C139.428 323.577 139.899 323.225 140.432 322.996C142.621 322.506 144.652 320.948 147.068 322.086C147.191 330.281 153.266 323.504 155.822 325.588C155.279 327.146 154.194 328.81 156.312 330.036C160.059 332.242 161.862 328.284 164.576 327.339C166.636 327.959 168.464 329.178 169.828 330.841C172.245 330.596 174.976 331.646 176.832 329.09C179.738 328.53 180.894 329.685 180.333 332.54Z" fill="#A4A3A4"/>
<path d="M105.154 311.685C107.115 312.052 110.826 315.66 109.303 309.478C108.708 307.062 107.99 304.681 107.342 302.352C110.756 301.073 111.772 304.208 113.908 304.681V309.934C116.937 312.84 112.542 315.747 113.908 318.689C114.059 318.869 114.172 319.077 114.24 319.302C114.309 319.527 114.332 319.763 114.307 319.997C114.283 320.23 114.211 320.456 114.098 320.662C113.984 320.868 113.83 321.048 113.645 321.193C108.568 324.292 103.403 325.64 98.0103 321.893C95.2265 318.216 93.0205 314.714 100.566 314.714C101.915 314.714 103.403 315.099 104.068 313.278C104.294 312.666 104.667 312.119 105.154 311.685Z" fill="#A5A5A5"/>
<path d="M113.908 318.584C110.756 315.66 115.133 312.753 113.908 309.829C116.184 310.792 118.74 312.648 119.16 308.078C118.74 305.486 118.687 303 120.911 301.073C121.885 301.209 122.869 301.262 123.852 301.231C125.603 292.038 127.704 298.972 129.665 301.073C128.754 303.875 124.938 304.681 125.34 308.848C125.638 311.772 124.43 315.747 118.985 313.768C115.763 312.63 115.238 316.535 113.908 318.584Z" fill="#ABABAB"/>
<path d="M180.333 332.539L176.832 329.037C176.026 324.73 175.081 320.282 182.084 323.784C183.03 326.026 182.084 328.757 183.835 330.788C184.973 330.666 186.356 330.928 187.179 330.368C190.12 328.337 189.91 328.424 192.607 330.368C193.587 331.069 195.355 330.666 196.756 330.823C199.487 331.121 202.534 329.878 204.792 332.452L180.333 332.539Z" fill="#A5A4A4"/>
<path d="M85.8947 294.174C86.9802 295.925 89.6764 296.696 89.3963 299.427C91.1471 301.178 92.8979 302.93 94.6487 304.681C95.4191 306.852 93.7033 307.605 92.4252 308.603C90.3417 309.741 88.4859 312.105 85.7196 310.021C85.1769 308.848 84.6516 307.675 84.1264 306.519C84.5991 303.35 86.3674 300.373 83.426 297.134C81.7453 295.19 84.2139 294.419 85.8947 294.174Z" fill="#A2A1A0"/>
<path d="M169.969 315.94C167.29 316.062 165.521 316.57 164.033 316.132C161.32 315.344 157.94 315.379 156.347 312.63C155.524 311.264 157.223 310.004 158.763 309.934C162.055 309.776 166.082 306.239 168.235 311.825C168.638 312.928 169.111 313.943 169.969 315.94Z" fill="#A9A9A9"/>
<path d="M147.068 322.191C144.827 323.136 143.111 326.166 140.065 323.942C139.392 323.233 139.018 322.293 139.018 321.315C139.018 320.338 139.392 319.398 140.065 318.689C143.479 320.44 141.605 311.387 147.068 315.572C151.13 318.549 147.978 319.932 147.068 322.191Z" fill="#A9A9A9"/>
<path d="M155.822 325.588C154.754 323.031 152.653 320.335 155.314 317.813C156.662 316.57 158.938 317.936 159.761 319.214C162.843 323.837 158.011 323.924 155.822 325.588Z" fill="#A6A6A6"/>
<path d="M120.893 301.178C120.648 303.595 121.716 306.432 119.143 308.183C113.593 307.535 116.149 303.577 116.779 301.178C117.567 298.044 119.475 299.427 120.893 301.178Z" fill="#A7A6A6"/>
<path d="M108.428 293.369C111.211 293.071 114.555 289.534 116.446 293.229C117.759 295.785 116.166 297.606 113.05 294.98C111.608 294.191 110.047 293.647 108.428 293.369Z" fill="#A8A8A8"/>
<path d="M169.828 330.841C167.272 330.841 164.734 330.841 164.576 327.339C164.877 326.54 165.345 325.814 165.949 325.21C166.553 324.606 167.279 324.138 168.078 323.837C169.471 324.754 170.663 325.945 171.579 327.339L169.828 330.841Z" fill="#A9A9A9"/>
<path d="M200.783 317.796C201.066 317.752 201.355 317.774 201.628 317.858C201.902 317.943 202.153 318.088 202.362 318.284C202.571 318.479 202.733 318.72 202.835 318.987C202.938 319.255 202.978 319.542 202.954 319.827C202.954 321.263 202.954 322.769 201.203 323.329C199.977 323.732 198.769 323.522 198.559 322.103C198.501 321.251 198.677 320.398 199.069 319.639C199.461 318.879 200.054 318.242 200.783 317.796Z" fill="#A8A8A8"/>
<path d="M219.061 334.238C218.974 333.713 218.869 333.205 218.746 332.68C222.248 331.174 227.5 335.359 229.391 329.072C233.856 329.825 232.42 332.399 231.142 334.903C227.027 336.409 222.948 337.04 219.061 334.238Z" fill="#969497"/>
<path d="M101.634 292.423C101.372 294.174 102.335 297.011 99.3759 296.906C97.1524 296.906 96.5396 294.524 96.4171 292.423H101.634Z" fill="#A1A0A0"/>
<path d="M140.065 318.584C140.065 320.335 140.065 322.086 140.065 323.837L138.314 325.588C135.145 323.259 137.439 320.93 138.314 318.584H140.065Z" fill="#9E9E9E"/>
<path d="M171.579 327.339C171.107 327.388 170.63 327.332 170.183 327.173C169.735 327.015 169.329 326.758 168.994 326.423C168.658 326.087 168.402 325.681 168.243 325.233C168.085 324.786 168.028 324.309 168.078 323.837C169.583 323.522 171.194 321.438 172.49 323.469C173.067 324.24 171.999 326.008 171.579 327.339Z" fill="#A5A5A5"/>
<path d="M230.862 333.87C230.967 332.119 231.299 330.246 229.391 329.072L229.654 327.199L233.05 327.409C233.883 328.206 234.451 329.239 234.678 330.368C235.09 331.866 235.337 333.404 235.414 334.956C235.366 335.348 235.22 335.721 234.991 336.042C234.762 336.363 234.456 336.622 234.101 336.795C233.504 336.933 232.885 336.946 232.282 336.835C231.68 336.723 231.107 336.489 230.599 336.147C230.432 335.779 230.368 335.373 230.415 334.972C230.461 334.571 230.615 334.19 230.862 333.87Z" fill="#504453"/>
<path d="M226.029 318.356C228.006 320.962 229.114 324.122 229.198 327.391C225.434 325.325 225.627 321.876 226.029 318.356Z" fill="#969497"/>
<path d="M195.25 314.872C194.322 314.732 193.499 314.276 194.007 313.313C194.587 312.348 195.475 311.608 196.528 311.212C197.544 310.897 197.789 312.052 197.649 312.963C197.555 313.521 197.258 314.025 196.815 314.377C196.372 314.729 195.815 314.905 195.25 314.872Z" fill="#A4A4A4"/>
<path d="M183.835 330.823C183.241 330.497 182.721 330.052 182.307 329.515C181.893 328.978 181.594 328.361 181.43 327.704C181.266 327.046 181.239 326.362 181.351 325.693C181.464 325.025 181.713 324.387 182.084 323.819C184.71 325.693 183.642 328.407 183.835 330.823Z" fill="#A9A9A9"/>
<path d="M231.107 336.059H234.608C237.532 333.38 241.156 333.765 244.676 333.678C247.687 333.678 250.698 333.678 253.71 333.678C254.725 333.678 255.741 333.678 256.756 333.678C263.952 333.678 271.148 333.678 278.344 333.678C282.528 333.818 286.888 333.187 290.372 336.427C290.457 336.923 290.427 337.432 290.284 337.915L94.1935 338.055L92.5828 336.304L93.4932 335.516L94.5437 336.112H147.068C164.453 334.221 181.892 335.814 199.295 335.289C209.957 335.709 220.602 334.238 231.107 336.059Z" fill="#A2A1A1"/>
<path d="M105.154 311.685V313.436C104.541 315.187 100.339 313.296 101.652 316.938L97.0473 316.728L98.1504 320.44C98.1504 320.825 98.1504 321.228 98.0278 321.613C96.277 326.428 94.7188 331.279 93.003 336.077L92.6353 336.392C91.5498 331.664 90.4818 326.919 89.3963 322.191C88.3108 317.463 87.6455 313.121 90.3242 308.848C92.075 306.974 94.2986 307.797 96.3995 308.2C98.1504 312.175 101.792 311.545 105.154 311.685Z" fill="#A2A1A1"/>
<path d="M91.1646 308.183C90.5694 312.852 89.9857 317.521 89.4138 322.191C87.2385 318.456 85.9953 314.251 85.7896 309.934C88.5384 310.161 89.3963 307.517 91.2171 306.344C91.8299 306.729 92.04 307.114 91.8299 307.5C91.6198 307.885 91.3572 308.183 91.1646 308.183Z" fill="#A8A7A7"/>
<path d="M292.28 213.364C290.022 208.986 291.177 204.189 290.529 199.601C291.3 192.054 298.828 191.966 303.03 188.219C304.886 186.275 308.685 185.575 307.249 181.53C307.15 179.297 307.614 177.075 308.598 175.069C310.033 172.617 311.749 171.146 313.307 175.069C310.664 180.427 314.848 184.174 316.809 188.289C318.56 191.984 320.626 195.398 320.451 199.618C320.683 199.828 320.867 200.088 320.987 200.377C321.107 200.667 321.162 200.98 321.147 201.293C321.132 201.606 321.048 201.912 320.9 202.189C320.752 202.465 320.545 202.706 320.293 202.893L313.29 213.697L292.28 213.364Z" fill="#EEC1BB"/>
<path d="M233.05 330.561V327.444C241.647 320.23 251.469 318.111 262.429 320.055C269.852 321.368 277.363 322.261 284.822 323.399C291.142 324.345 292.788 327.427 289.006 332.855C280.62 336.007 271.901 333.608 263.374 334.361H253.867C249.595 334.361 245.306 334.361 241.016 334.361C237.725 334.273 234.608 334.186 233.05 330.561Z" fill="#EABFB9"/>
<path d="M347.115 278.905C352.613 287.888 355.099 296.661 358.373 305.083C359.914 309.093 356.972 308.585 354.872 308.883C351.633 309.251 347.343 311.072 347.185 305.381C346.958 297.029 347.115 288.729 347.115 278.905Z" fill="#DFD5CD"/>
<path d="M262.499 332.697H289.006C289.079 333.161 289.125 333.629 289.146 334.098C285.872 336.514 281.67 333.625 278.379 335.954L255.618 335.814C256.178 331.174 260.748 335.026 262.499 332.697Z" fill="#74646E"/>
<path d="M278.379 336.077C281.513 332.855 285.592 335.008 289.146 334.22C289.616 334.24 290.081 334.322 290.529 334.466C290.529 335.096 290.442 335.744 290.389 336.392L278.379 336.077Z" fill="#716771"/>
<path d="M313.395 175.104C311.434 173.23 310.226 174.036 310.068 176.329C310.043 178.958 309.383 181.541 308.142 183.859C307.712 184.343 307.162 184.706 306.548 184.912C305.934 185.118 305.276 185.159 304.641 185.032C304.024 184.878 303.458 184.566 302.997 184.127C302.537 183.688 302.198 183.137 302.015 182.528C301.812 181.37 301.812 180.185 302.015 179.026C302.592 175.366 302.015 172.022 298.513 170.148C295.011 168.275 292.578 170.586 290.162 172.67C288.306 174.421 287.098 176.61 285.084 178.151C283.42 179.293 281.52 180.043 279.525 180.347C277.53 180.65 275.492 180.498 273.564 179.902C271.445 179.223 269.658 177.773 268.557 175.839C267.716 167.959 260.871 165.298 255.618 161.095C247.214 152.69 248.212 146.387 259.12 142.219C264.687 140.1 262.079 133.937 265.825 131.24C269.835 126.197 276.908 127.475 281.583 123.606C289.759 117.582 289.811 117.565 294.048 126.88C295.974 131.083 299.406 134.41 300.754 138.892C301.332 141.186 302.312 143.042 305.184 142.745C308.874 143.877 312.404 145.478 315.688 147.507C318.422 149.045 320.663 151.329 322.149 154.091C331.883 157.751 334.212 161.516 331.428 168.975C328.819 175.874 322.236 178.08 313.395 175.104Z" fill="#EFC3BD"/>
<path d="M302.89 182.108L304.641 183.859C305.078 186.731 302.75 187.536 301.034 188.814C295.677 192.439 289.461 191.791 283.526 192.422C278.23 193.08 272.855 192.584 267.769 190.968C264.53 188.937 263.339 185.715 262.359 182.213C262.359 177.45 264.53 174.859 269.502 175.016L273.004 178.518C277.538 181.39 281.758 181.355 285.259 176.767C285.195 175.63 285.501 174.503 286.133 173.556C286.765 172.608 287.687 171.892 288.761 171.514C290.932 178.606 295.992 181.513 302.89 182.108Z" fill="#EFC0BA"/>
<path d="M320.258 202.91L320.398 199.618C322.149 200.354 322.411 203.435 325.51 202.665C328.207 199.811 320.748 195.381 325.756 193.682C329.257 192.456 328.469 197.64 329.677 199.986C332.409 198.463 332.269 194.225 335.998 194.33C333.879 197.675 337.206 200.284 337.346 204.048C335.415 203.69 333.421 203.923 331.625 204.716C329.829 205.51 328.314 206.827 327.279 208.496C325.948 210.58 325.388 213.749 321.921 212.243C318.805 210.86 319.628 208.076 320.276 205.484C320.373 204.629 320.367 203.764 320.258 202.91Z" fill="#E55A56"/>
<path d="M269.625 175.104C266.664 176.848 264.203 179.327 262.481 182.301C257.702 176.049 260.608 167.347 255.706 161.13C262.516 163.564 270.518 164.86 269.625 175.104Z" fill="#EC9C99"/>
<path d="M299.511 140.083C296.587 133.552 291.125 128.264 290.197 120.629C286.695 120.489 285.364 124.849 281.915 124.376C281.127 125.199 280.462 125.129 279.884 124.131C280.777 118.755 285.609 117.372 289.461 116.602C293.838 115.709 294.504 121.522 294.994 123.816C296.465 130.505 303.03 133.657 304.676 139.873L304.256 141.011C302.225 143.112 300.719 142.359 299.511 140.083Z" fill="#E9807E"/>
<path d="M364.168 196.116C363.363 190.863 355.992 196.536 355.414 190.863C354.766 189.112 353.436 186.363 356.745 186.626C361.577 187.028 366.795 185.803 371.154 189.112C367.652 189.112 367.18 192.124 365.902 194.365C365.844 194.807 365.644 195.217 365.331 195.534C365.018 195.85 364.609 196.055 364.168 196.116Z" fill="#E65755"/>
<path d="M315.286 148.838L304.641 143.585C304.409 143.377 304.223 143.121 304.096 142.836C303.968 142.551 303.903 142.243 303.903 141.93C303.903 141.618 303.968 141.31 304.096 141.024C304.223 140.739 304.409 140.484 304.641 140.276L304.746 139.873C307.926 139.694 311.089 140.447 313.847 142.04C316.606 143.632 318.84 145.995 320.275 148.838C319.587 149.448 318.7 149.784 317.781 149.784C316.861 149.784 315.974 149.448 315.286 148.838Z" fill="#EC9793"/>
<path d="M372.922 194.365C372.922 193.787 372.922 193.209 372.922 192.614L374.673 190.863C376.056 189.69 376.091 188.534 374.673 187.361C378.175 185.05 376.336 182.738 374.673 180.357C380.538 181.302 382.762 186.1 385.336 190.513C386.386 193.034 384.355 193.437 382.814 194.19C380.313 194.829 377.757 195.234 375.181 195.398C374.339 195.298 373.549 194.937 372.922 194.365Z" fill="#E65755"/>
<path d="M279.884 124.184L281.915 124.429C277.363 128.526 271.796 130.225 265.93 131.24C266.368 120.559 274.299 124.691 279.884 124.184Z" fill="#EB938F"/>
<path d="M364.168 136.704C365.219 139.085 368.02 140.573 367.67 143.708L365.376 144.18L360.597 138.56C360.914 137.908 361.433 137.376 362.076 137.042C362.719 136.707 363.453 136.589 364.168 136.704Z" fill="#F4DCD1"/>
<path d="M351.913 190.863C351.58 195.731 349.654 195.836 346.66 192.614C348.131 191.318 347.956 184.927 351.913 190.863Z" fill="#E65755"/>
<path d="M315.286 148.838H320.275C322.446 150.064 322.026 152.183 322.026 154.091L315.286 148.838Z" fill="#E97C79"/>
<path d="M367.67 173.353C370.121 174.386 372.677 175.279 372.922 178.606C372.221 178.652 371.517 178.548 370.859 178.301C370.2 178.053 369.603 177.668 369.105 177.17C368.608 176.673 368.223 176.075 367.975 175.417C367.727 174.758 367.623 174.055 367.67 173.353Z" fill="#E65755"/>
<path d="M374.673 187.361C376.004 187.764 378.42 186.415 378.472 188.762C378.472 190.653 376.266 190.67 374.673 190.863V187.361Z" fill="#E35F59"/>
<path d="M453.127 48.9065C453.232 50.7801 453.337 52.6362 453.425 54.5098C455.841 56.8737 455.403 59.7629 455.018 62.7047C453.635 66.7321 453.967 70.9521 453.862 75.1195C453.854 77.0346 453.295 78.9068 452.251 80.5127C451.754 81.0287 451.083 81.3414 450.367 81.3899C449.652 81.4385 448.945 81.2194 448.382 80.7754C449.59 70.0415 450.291 59.3427 453.127 48.9065Z" fill="#DCD99C"/>
<path d="M448.382 80.7753L451.534 80.6002C455.42 82.0886 460.165 82.8591 458.537 88.9527L456.699 89.2153C456.202 89.3897 455.757 89.6864 455.405 90.0781C455.053 90.4699 454.805 90.944 454.685 91.4567C454.338 92.095 453.832 92.6321 453.214 93.0151C450.903 89.7231 451.148 85.1179 447.804 82.3513C447.96 81.813 448.153 81.2863 448.382 80.7753Z" fill="#C7DFBF"/>
<path d="M446.456 82.6139C441.974 88.4624 435.374 88.8476 428.843 89.3729C434.252 86.0626 440.222 83.7717 446.456 82.6139Z" fill="#DBDDAD"/>
<path d="M105.136 154.091C100.718 150.502 97.5649 145.593 96.1369 140.083C94.7908 134.909 94.8451 129.47 96.2945 124.324C105.346 104.484 122.714 97.5503 140.8 106.463C144.302 108.214 147.296 110.21 148.836 113.923C151.357 119.176 157.118 123.798 151.305 130.225C148.294 132.256 148.959 135.478 148.801 138.367C148.048 144.303 142.481 140.661 139.837 142.885C138.734 143.146 137.575 143.009 136.563 142.499C135.215 139.749 133.168 137.4 130.628 135.688C128.644 134.239 127.256 132.116 126.724 129.717C126.408 127.966 126.986 126.215 125.971 124.604C124.22 125.97 125.568 127.721 125.393 129.227C125.235 133.044 127.284 135.338 130.645 136.774C132.751 137.841 134.48 139.528 135.6 141.606C136.406 143.69 139.662 144.478 138.787 147.49C135.898 152.62 130.575 154.494 125.901 157.366C124.027 158.723 121.977 159.818 119.808 160.623C117.164 161.06 114.836 159.52 112.297 159.344C110.669 156.49 107.36 156.052 105.136 154.091Z" fill="#D6EAFE"/>
<path d="M140.065 141.834C141.483 139.715 142.638 137.614 145.685 140.293C146.928 141.396 146.805 139.295 147.103 138.542C148.504 137.141 147.751 135.285 148.083 133.692C149.029 132.991 149.712 132.273 148.224 131.38C148.17 131.082 148.201 130.775 148.312 130.494C148.423 130.212 148.611 129.968 148.854 129.787C156.925 124.534 148.749 119.281 148.854 114.133C157.608 123.606 158.868 134.269 152.618 147.402C148.959 149.889 146.193 147.402 143.269 145.756C142.477 145.381 141.779 144.835 141.225 144.156C140.67 143.478 140.274 142.685 140.065 141.834Z" fill="#CAE0F6"/>
<path d="M124.395 155.842L138.612 147.087C140.695 145.336 142.358 146.597 144.004 147.875C145.3 149.626 147.681 150.992 147.015 153.829C144.626 156.414 141.745 158.498 138.542 159.957C136.791 158.819 135.723 158.767 133.604 160.342C129.315 163.512 125.323 161.253 124.395 155.842Z" fill="#C9E2FE"/>
<path d="M124.395 155.842C126.794 159.502 129.035 162.671 133.377 157.593C137.071 153.181 138.104 156.333 138.542 159.957C131.171 165.21 123.502 165.21 115.623 161.201C116.446 159.887 118.285 160.64 119.125 159.45L124.395 155.842Z" fill="#C3DBF5"/>
<path d="M147.068 153.811C145.825 152.34 143.391 151.57 143.566 149.013C143.339 147.262 141.623 145.511 143.391 143.76C146.893 143.76 148.644 148.348 152.566 147.262C151.2 149.784 149.782 152.34 147.068 153.811Z" fill="#C3DBF5"/>
<path d="M96.2945 124.324C96.2945 129.577 96.2303 134.83 96.1019 140.083C92.2501 134.83 93.3181 129.577 96.2945 124.324Z" fill="#F5C556"/>
<path d="M105.136 154.091C108.34 154.669 111.579 155.194 112.139 159.344C109.233 158.416 106.467 157.261 105.136 154.091Z" fill="#D3E6F8"/>
<path d="M119.16 159.344C118.799 159.935 118.279 160.412 117.66 160.722C117.041 161.032 116.348 161.161 115.658 161.095C114.97 161.155 114.279 161.023 113.661 160.714C113.043 160.405 112.522 159.931 112.157 159.344C114.538 157.681 116.831 159.344 119.16 159.344Z" fill="#D3E6F8"/>
<path d="M463.789 106.901C459.99 106.621 460.883 110.893 458.677 112.154C456.926 110.823 458.572 108.214 456.786 106.901L455.491 105.062C456.979 102.243 454.633 98.741 457.101 96.0969C462.459 97.7254 463.457 102.12 463.789 106.901Z" fill="#DEC1B7"/>
<path d="M457.101 96.0094C456.296 98.9511 457.907 102.331 455.473 104.992L453.267 93.0151C453.267 92.3847 453.407 91.7719 453.46 91.1415C455.368 90.2134 455.858 91.9295 456.751 92.8925C456.856 93.9256 456.961 94.9763 457.101 96.0094Z" fill="#E3DDCD"/>
<path d="M456.786 106.813C458.905 108.039 458.537 110.158 458.677 112.066C458.677 113.24 458.677 114.395 458.677 115.568C455.806 113.205 457.206 109.86 456.786 106.813Z" fill="#DAD8C6"/>
<path d="M458.589 88.9527C458.589 84.1724 452.654 84.4351 451.586 80.6003C451.586 78.8492 451.586 77.2383 451.586 75.5573C453.897 71.6525 451.078 67.0473 453.337 63.1249L453.442 54.5098C454.055 53.897 454.668 53.3016 455.193 52.7588C457.486 54.5098 459.762 52.7588 462.038 52.7588C465.12 54.002 465.435 57.3115 467.081 59.6229C469.112 62.4946 471.37 64.2981 475.065 63.3175C475.894 63.234 476.732 63.3492 477.508 63.6537C478.285 63.9582 478.977 64.4432 479.529 65.0686C475.065 68.6582 471.79 72.0727 480.807 73.8238C481.122 73.8238 487.075 77.4484 480.807 79.5321C478.794 80.1975 479.056 81.2832 480.142 83.3844C483.083 88.6375 483.206 94.451 482.908 100.299L458.589 88.9527Z" fill="#8DD59B"/>
<path d="M456.751 92.8926L453.46 91.1415C453.6 89.8458 453.249 87.8321 453.95 87.3593C455.35 86.4137 456.121 88.0597 456.751 89.2154V92.8926Z" fill="#EFD9CD"/>
<path d="M339.359 211.35C338.554 212.926 337.766 212.436 337.171 211.893C336.486 211.399 335.967 210.709 335.683 209.914C335.508 208.759 336.611 208.689 337.258 209.144C338.034 209.803 338.738 210.543 339.359 211.35Z" fill="#E3635A"/>
<path d="M381.676 192.614C382.427 192.686 383.182 192.529 383.841 192.163C384.501 191.798 385.034 191.24 385.371 190.565C386.841 191.388 386.754 192.894 386.999 194.243C386.666 199.828 388.154 205.799 383.217 210.895C381.676 201.369 375.006 208.479 371.172 206.622C370.773 206.237 370.462 205.77 370.259 205.253C370.057 204.736 369.968 204.182 369.998 203.628C369.998 200.529 372.957 201.597 374.393 200.546C371.136 199.163 371.749 196.834 372.922 194.383H374.673C377.544 196.239 379.4 193.735 381.676 192.614Z" fill="#E45F59"/>
<path d="M372.922 194.365C373.395 195.941 372.38 203.12 371.172 206.622C365.534 209.529 360.141 210.247 355.414 204.871C358.04 201.86 359.809 199.968 364.974 202.455C370.716 205.239 369.421 196.519 372.922 194.365Z" fill="#E26B5F"/>
<path d="M420.317 273.162L419.844 283.668C419.109 285.051 418.373 286.4 416.342 285.419C416.459 280.82 416.593 276.226 416.745 271.638C417.425 271.481 418.137 271.543 418.779 271.817C419.421 272.091 419.96 272.562 420.317 273.162Z" fill="#B1A5A5"/>
<path d="M416.43 285.419L419.932 283.668C418.951 289.551 417.988 295.452 417.008 301.353L416.01 300.6C415.309 297.414 416.675 294.017 415.134 290.9C414.837 288.921 414.539 286.82 416.43 285.419Z" fill="#BEB3B1"/>
<path d="M416.92 301.283C416.237 303.682 415.572 306.081 414.889 308.48C411.965 306.011 412.456 303.56 414.889 301.091C415.257 300.32 415.712 300.25 416.255 300.916L416.92 301.283Z" fill="#B4AAA8"/>
<path d="M416.272 300.916C415.822 301.009 415.366 301.067 414.907 301.091C414.907 297.676 414.994 294.244 415.047 290.812C417.831 293.894 416.167 297.519 416.272 300.916Z" fill="#94898D"/>
<path d="M173.33 220.631C176.096 221.104 179.703 218.88 181.454 222.382C182.207 223.923 180.193 225.148 178.635 225.884C177.322 223.66 174.083 223.432 173.33 220.631Z" fill="#FCF9F9"/>
<path d="M283.631 192.491L301.139 187.238C303.205 186.17 304.763 186.1 304.746 189.112C300.439 193.122 294.066 194.365 290.634 199.618C288.673 198.357 289.094 196.256 288.884 194.365C287.623 192.106 285.382 192.894 283.631 192.491Z" fill="#DA8385"/>
<path d="M169.969 218.88C164.471 216.096 158.273 218.88 152.723 216.656C152.058 207.708 160.252 213.574 163.07 210.475H181.909C185.796 215.325 183.66 217.601 178.407 218.249C175.624 218.6 172.787 218.652 169.969 218.88Z" fill="#696193"/>
<path d="M479.582 64.9285H474.329C472.036 63.7378 470.828 62.1794 472.578 59.6754C474.66 58.3447 477.119 57.7299 479.582 57.9244C480.177 60.2533 480.755 62.5821 481.332 64.9285H479.582Z" fill="#83CA91"/>
<path d="M472.596 59.6578C473.174 61.4088 473.769 63.1599 474.347 64.9109C463.964 67.1347 464.752 58.1694 462.091 52.6537C465.015 46.525 467.921 53.4241 470.845 52.6537C475.747 53.9144 470.267 57.7842 472.596 59.6578Z" fill="#89D298"/>
<path d="M470.845 52.6887C467.921 55.8931 465.015 48.3812 462.091 52.6887C462.091 50.9377 462.091 49.1866 462.091 47.4356C466.643 46.4375 468.376 50.1672 470.845 52.6887Z" fill="#85C992"/>
<path d="M364.168 196.116L365.919 194.365C367.67 195.608 367.512 197.027 366.077 198.322C365.423 198.69 364.703 198.922 363.958 199.005L364.168 196.116Z" fill="#E16B5E"/>
<path d="M138.314 330.824C140.187 330.824 142.201 330.508 143.566 332.399H119.055C118.716 332.073 118.447 331.681 118.262 331.248C118.078 330.815 117.983 330.349 117.983 329.878C117.983 329.407 118.078 328.941 118.262 328.508C118.447 328.075 118.716 327.683 119.055 327.356C124.78 327.479 122.557 323.014 123.169 318.094C126.811 325.868 130.68 331.051 138.314 330.824Z" fill="#A0A0A0"/>
<path d="M119.16 327.339V332.382H99.9012C97.45 330.929 94.071 329.563 96.1719 325.991C97.8352 323.154 100.742 324.607 103.175 325.57C104.515 326.079 105.883 326.511 107.272 326.866C110.038 327.759 112.805 328.617 115.693 327.321L119.16 327.339Z" fill="#9D9D9D"/>
<path d="M115.658 327.339C114.013 334.343 109.758 328.249 106.904 329.09C105.294 326.463 102.615 325.588 99.9012 324.66C97.1874 323.732 96.5396 322.681 98.1504 320.352C103.403 324.187 108.655 320.352 113.908 320.352C116.254 321.368 112.262 324.012 115.098 324.905L115.676 325.605L115.658 327.339Z" fill="#A0A0A0"/>
<path d="M115.553 318.689L120.298 318.496C120.298 321.893 119.038 324.502 115.588 325.658C114.957 324.606 114.621 323.404 114.615 322.178C114.609 320.952 114.933 319.747 115.553 318.689Z" fill="#A0A0A0"/>
<path d="M115.553 318.689C115.553 321 115.553 323.329 115.553 325.693H109.968C109.881 322.068 114.871 323.942 113.89 320.44C113.89 319.862 113.89 319.284 113.89 318.689H115.553Z" fill="#999898"/>
<path d="M199.592 336.059H147.068C150.57 332.837 154.824 334.483 158.711 334.413C172.332 334.221 185.971 334.413 199.592 334.413C200.135 334.798 200.31 335.184 200.117 335.551C199.925 335.919 199.837 336.059 199.592 336.059Z" fill="#645C68"/>
<path d="M98.1504 320.44C98.5005 325.921 106.904 323.276 106.904 329.195L102.878 328.162C101.004 327.672 99.481 323.872 97.38 326.814C95.7517 329.107 99.2884 330.456 99.8837 332.504C97.4675 332.802 94.5087 332.312 94.6312 336.199C94.0977 336.203 93.5647 336.162 93.038 336.077C92.7929 330.158 92.7929 324.345 98.1504 320.44Z" fill="#969696"/>
<path d="M199.592 336.059C199.592 335.499 199.592 334.938 199.592 334.308L218.974 334.168L230.774 333.818C230.774 334.536 230.949 335.271 231.054 335.989L199.592 336.059Z" fill="#5C5360"/>
<path d="M98.1504 304.68C98.6922 303.497 99.5059 302.458 100.525 301.649C101.544 300.84 102.74 300.282 104.016 300.023C102.037 303.787 104.681 308.428 98.1329 308.148C97.8929 307.926 97.7018 307.658 97.5716 307.359C97.4413 307.059 97.3749 306.736 97.3766 306.41C97.3782 306.084 97.4479 305.762 97.5811 305.464C97.7144 305.166 97.9082 304.899 98.1504 304.68Z" fill="#A1A1A1"/>
<path d="M94.6662 304.575C90.7619 304.978 89.0111 303.245 89.4138 299.322C93.2889 298.972 95.0397 300.723 94.6662 304.575Z" fill="#A8A7A7"/>
<path d="M98.1504 304.681V308.183H96.3996C95.6248 308.709 94.7099 308.99 93.7733 308.99C92.8368 308.99 91.9219 308.709 91.1471 308.183C91.1471 307.587 91.1471 307.009 91.1471 306.432C91.8388 306.522 92.5416 306.403 93.1655 306.091C93.7893 305.779 94.3058 305.288 94.6487 304.681H98.1504Z" fill="#9C9B9B"/>
<path d="M101.669 316.833C99.6911 312.525 102.965 313.488 105.171 313.331C107.115 317.621 103.876 316.71 101.669 316.833Z" fill="#969595"/>
<path d="M233.05 330.561C239.563 335.411 247.057 331.699 254.06 332.925C254.259 333.097 254.42 333.309 254.533 333.547C254.646 333.785 254.708 334.043 254.716 334.306C254.725 334.57 254.678 334.831 254.58 335.076C254.482 335.32 254.335 335.542 254.147 335.726L245.183 336.059C241.909 333.853 237.917 336.444 234.678 334.413C234.029 334.032 233.52 333.451 233.226 332.757C232.933 332.063 232.871 331.293 233.05 330.561Z" fill="#675B67"/>
<path d="M234.608 334.448C238.11 334.956 242.032 333.03 245.113 336.094H234.608C234.608 335.516 234.608 334.973 234.608 334.448Z" fill="#5F5260"/>
<path d="M254.077 335.726L253.99 332.925L262.499 332.732C261.028 335.621 257.246 333.45 255.496 335.937C255.015 335.932 254.538 335.861 254.077 335.726Z" fill="#3D3042"/>
<path d="M304.641 189.112C304.262 188.539 303.739 188.076 303.124 187.768C302.51 187.461 301.825 187.32 301.139 187.361L304.641 183.859H308.142C309.893 187.501 306.146 187.589 304.641 189.112Z" fill="#E29F9E"/>
<path d="M302.89 182.108C291.86 185.05 289.111 183.001 288.883 171.602C291.702 168.1 294.871 164.703 299.686 167.802C305.148 171.357 306.111 176.347 302.89 182.108Z" fill="#ECA19D"/>
<path d="M285.382 176.855C282.966 183.649 279.674 184.087 273.126 178.606C277.363 179.271 281.32 177.853 285.382 176.855Z" fill="#EDA8A3"/>
<path d="M270.517 153.601C270.556 153.888 270.531 154.18 270.445 154.456C270.359 154.733 270.212 154.987 270.017 155.201C269.822 155.414 269.582 155.583 269.314 155.694C269.047 155.804 268.758 155.855 268.469 155.842C266.386 156.087 264.39 155.72 263.602 153.548C263.427 153.058 264.722 151.5 265.528 151.342C266.488 151.209 267.466 151.35 268.349 151.75C269.232 152.15 269.984 152.791 270.517 153.601Z" fill="#BB9899"/>
<path d="M299.668 158.189C295.642 161.796 293.068 160.64 288.358 158.189H299.668Z" fill="#90757C"/>
<path d="M304.641 140.328C304.641 141.431 304.641 142.534 304.641 143.638C299.616 147.297 299.283 144.163 299.546 140.135C300.275 140.682 301.153 140.993 302.063 141.027C302.973 141.061 303.873 140.818 304.641 140.328Z" fill="#AF8C8F"/>
<path d="M271.375 136.178C272.111 137.929 271.095 138.349 270.307 138.297C269.222 138.297 267.699 138.087 267.208 137.386C266.386 136.178 267.506 135.198 268.749 135.25C269.674 135.394 270.565 135.709 271.375 136.178Z" fill="#987D81"/>
<path d="M381.676 192.614C377.492 198.393 377.089 198.48 374.673 194.365C376.761 193.05 379.215 192.436 381.676 192.614Z" fill="#E2665C"/>
<path d="M453.319 63.1249C452.777 67.2748 454.615 71.7575 451.569 75.5572C452.216 71.4248 449.958 66.8896 453.319 63.1249Z" fill="#E4DFB3"/>
<path d="M124.307 129.699C123.154 128.446 122.504 126.809 122.485 125.106C122.466 123.402 123.077 121.751 124.202 120.471C124.885 119.596 126.461 119.071 127.091 120.279C128.597 123.22 130.4 126.302 127.932 129.664C127.702 129.914 127.423 130.114 127.112 130.252C126.802 130.39 126.467 130.463 126.127 130.466C125.788 130.469 125.451 130.403 125.138 130.271C124.825 130.139 124.542 129.945 124.307 129.699Z" fill="#9EA5CC"/>
<path d="M124.307 129.699H127.932L131.556 134.62C131.594 135.323 131.453 136.024 131.147 136.658C130.841 137.291 130.379 137.837 129.805 138.244C126.321 136.388 120.806 135.916 124.307 129.699Z" fill="#B0B2EE"/>
<path d="M143.461 143.725C143.111 145.476 145.825 147.227 143.636 148.978L138.612 147.087C137.439 145.336 134.707 144.706 134.777 141.974C134.88 141.84 135.013 141.731 135.165 141.656C135.316 141.581 135.483 141.542 135.653 141.542C135.822 141.542 135.989 141.581 136.141 141.656C136.293 141.731 136.425 141.84 136.528 141.974L140.065 141.834L143.461 143.725Z" fill="#A5B1D5"/>
<path d="M136.563 141.834H134.812L129.752 138.087C129.658 137.378 129.774 136.656 130.085 136.012C130.396 135.368 130.889 134.829 131.503 134.462C132.342 134.566 133.149 134.847 133.871 135.286C134.594 135.725 135.214 136.312 135.693 137.009C136.171 137.706 136.496 138.496 136.646 139.328C136.796 140.16 136.768 141.014 136.563 141.834Z" fill="#969BC5"/>
<path d="M148.906 129.577V131.328C149.502 131.713 149.694 132.098 149.484 132.466C149.274 132.834 149.099 133.026 148.889 133.026C148.889 134.952 149.186 137.036 147.138 138.279C148.136 135.565 143.899 131.678 148.906 129.577Z" fill="#D1E6FD"/>
<path d="M148.906 133.079C148.906 132.518 148.906 131.958 148.906 131.328C150.447 131.52 152.408 130.715 153.248 132.694C153.388 132.991 152.863 134.007 152.776 133.989C151.48 133.832 150.202 133.482 148.906 133.079Z" fill="#BBC9F7"/>
</g>
<defs>
<clipPath id="clip0_60_100">
<rect width="541" height="422" fill="white"/>
</clipPath>
</defs>
</svg>
