<svg width="266" height="31" viewBox="0 0 266 31" fill="none" xmlns="http://www.w3.org/2000/svg">
<path d="M38.1621 24.4372C37.0601 24.4372 36.0403 24.2275 35.1028 23.8081C34.1816 23.3887 33.425 22.7838 32.8329 21.9935L34.6586 19.8401C35.1357 20.4853 35.6538 20.9692 36.213 21.2918C36.7887 21.6144 37.4137 21.7757 38.0881 21.7757C39.881 21.7757 40.7774 20.7353 40.7774 18.6546V9.89592H34.634V7.25865H43.9848V18.4852C43.9848 20.4853 43.4831 21.9774 42.4798 22.9613C41.4929 23.9452 40.0537 24.4372 38.1621 24.4372ZM55.6634 11.1299C56.7161 11.1299 57.6536 11.3315 58.4761 11.7347C59.3149 12.138 59.9728 12.759 60.4499 13.5978C60.9269 14.4204 61.1654 15.485 61.1654 16.7915V24.1952H58.0813V17.1787C58.0813 16.0334 57.8016 15.1785 57.2424 14.614C56.6996 14.0494 55.9348 13.7671 54.9479 13.7671C54.2241 13.7671 53.5827 13.9123 53.0234 14.2027C52.4642 14.493 52.0283 14.9285 51.7158 15.5092C51.4197 16.0738 51.2717 16.7915 51.2717 17.6626V24.1952H48.1876V6.24245H51.2717V14.7591L50.6055 13.6946C51.0661 12.8719 51.7322 12.2428 52.604 11.8073C53.4922 11.3557 54.512 11.1299 55.6634 11.1299ZM71.0232 24.3646C69.6744 24.3646 68.4736 24.0824 67.421 23.5178C66.3683 22.9371 65.5376 22.1467 64.9291 21.1467C64.3205 20.1466 64.0162 19.0094 64.0162 17.7351C64.0162 16.4447 64.3205 15.3075 64.9291 14.3236C65.5376 13.3235 66.3683 12.5413 67.421 11.9767C68.4736 11.4121 69.6744 11.1299 71.0232 11.1299C72.3884 11.1299 73.5973 11.4121 74.65 11.9767C75.7192 12.5413 76.5498 13.3155 77.1423 14.2994C77.7506 15.2833 78.0552 16.4286 78.0552 17.7351C78.0552 19.0094 77.7506 20.1466 77.1423 21.1467C76.5498 22.1467 75.7192 22.9371 74.65 23.5178C73.5973 24.0824 72.3884 24.3646 71.0232 24.3646ZM71.0232 21.7757C71.7798 21.7757 72.4542 21.6144 73.0463 21.2918C73.6384 20.9692 74.099 20.5015 74.428 19.8885C74.7734 19.2755 74.9461 18.5578 74.9461 17.7351C74.9461 16.8964 74.7734 16.1786 74.428 15.5818C74.099 14.9688 73.6384 14.5011 73.0463 14.1785C72.4542 13.8558 71.788 13.6946 71.0478 13.6946C70.2912 13.6946 69.6168 13.8558 69.0247 14.1785C68.449 14.5011 67.9884 14.9688 67.643 15.5818C67.2976 16.1786 67.1249 16.8964 67.1249 17.7351C67.1249 18.5578 67.2976 19.2755 67.643 19.8885C67.9884 20.5015 68.449 20.9692 69.0247 21.2918C69.6168 21.6144 70.283 21.7757 71.0232 21.7757ZM88.9527 24.1952V21.5822L88.78 21.0257V16.4528C88.78 15.5657 88.5086 14.8801 87.9658 14.3962C87.423 13.8962 86.6003 13.6462 85.4986 13.6462C84.7584 13.6462 84.0259 13.759 83.3027 13.9849C82.5949 14.2107 81.9951 14.5253 81.5016 14.9285L80.2927 12.7267C80.9997 12.1945 81.8386 11.7992 82.8093 11.5412C83.7962 11.267 84.8154 11.1299 85.8687 11.1299C87.7761 11.1299 89.2488 11.5815 90.285 12.4848C91.3375 13.3719 91.8641 14.751 91.8641 16.6222V24.1952H88.9527ZM84.8077 24.3646C83.8208 24.3646 82.9573 24.2033 82.2171 23.8807C81.477 23.542 80.901 23.0823 80.4901 22.5016C80.0953 21.9048 79.8979 21.2353 79.8979 20.4934C79.8979 19.7675 80.0706 19.1143 80.416 18.5336C80.7776 17.9529 81.3613 17.4932 82.1678 17.1545C82.9735 16.8157 84.0429 16.6464 85.3752 16.6464H89.1994V18.6546H85.5973C84.544 18.6546 83.837 18.8239 83.4754 19.1627C83.113 19.4853 82.9326 19.8885 82.9326 20.3724C82.9326 20.9208 83.1547 21.3563 83.5988 21.6789C84.0429 22.0016 84.6597 22.1628 85.4492 22.1628C86.2056 22.1628 86.8802 21.9935 87.4724 21.6547C88.0807 21.316 88.5163 20.816 88.78 20.1547L89.2981 21.9693C89.0021 22.7274 88.467 23.3161 87.6944 23.7355C86.9373 24.1549 85.9751 24.3646 84.8077 24.3646ZM103.297 11.1299C104.351 11.1299 105.288 11.3315 106.11 11.7347C106.949 12.138 107.607 12.759 108.084 13.5978C108.561 14.4204 108.799 15.485 108.799 16.7915V24.1952H105.715V17.1787C105.715 16.0334 105.436 15.1785 104.876 14.614C104.334 14.0494 103.569 13.7671 102.582 13.7671C101.859 13.7671 101.217 13.9123 100.657 14.2027C100.098 14.493 99.6629 14.9285 99.3498 15.5092C99.0538 16.0738 98.9057 16.7915 98.9057 17.6626V24.1952H95.8217V11.275H98.7577V14.7591L98.2396 13.6946C98.7006 12.8719 99.3668 12.2428 100.238 11.8073C101.126 11.3557 102.146 11.1299 103.297 11.1299ZM119.826 24.1952V7.25865H126.932C128.462 7.25865 129.769 7.5006 130.855 7.9845C131.958 8.46841 132.804 9.16197 133.396 10.0653C133.988 10.9686 134.285 12.0412 134.285 13.2832C134.285 14.5253 133.988 15.5979 133.396 16.5012C132.804 17.3883 131.958 18.0739 130.855 18.5578C129.769 19.0256 128.462 19.2594 126.932 19.2594H121.603L123.034 17.8319V24.1952H119.826ZM131.126 24.1952L126.759 18.0497H130.189L134.581 24.1952H131.126ZM123.034 18.1707L121.603 16.6706H126.784C128.199 16.6706 129.26 16.3721 129.967 15.7753C130.691 15.1785 131.052 14.3478 131.052 13.2832C131.052 12.2025 130.691 11.3718 129.967 10.7911C129.26 10.2105 128.199 9.92011 126.784 9.92011H121.603L123.034 8.37163V18.1707ZM143.499 24.3646C142.15 24.3646 140.949 24.0824 139.897 23.5178C138.844 22.9371 138.013 22.1467 137.405 21.1467C136.796 20.1466 136.492 19.0094 136.492 17.7351C136.492 16.4447 136.796 15.3075 137.405 14.3236C138.013 13.3235 138.844 12.5413 139.897 11.9767C140.949 11.4121 142.15 11.1299 143.499 11.1299C144.864 11.1299 146.073 11.4121 147.126 11.9767C148.194 12.5413 149.026 13.3155 149.618 14.2994C150.226 15.2833 150.531 16.4286 150.531 17.7351C150.531 19.0094 150.226 20.1466 149.618 21.1467C149.026 22.1467 148.194 22.9371 147.126 23.5178C146.073 24.0824 144.864 24.3646 143.499 24.3646ZM143.499 21.7757C144.255 21.7757 144.93 21.6144 145.522 21.2918C146.114 20.9692 146.574 20.5015 146.904 19.8885C147.249 19.2755 147.422 18.5578 147.422 17.7351C147.422 16.8964 147.249 16.1786 146.904 15.5818C146.574 14.9688 146.114 14.5011 145.522 14.1785C144.93 13.8558 144.264 13.6946 143.524 13.6946C142.766 13.6946 142.093 13.8558 141.5 14.1785C140.924 14.5011 140.464 14.9688 140.119 15.5818C139.773 16.1786 139.601 16.8964 139.601 17.7351C139.601 18.5578 139.773 19.2755 140.119 19.8885C140.464 20.5015 140.924 20.9692 141.5 21.2918C142.093 21.6144 142.759 21.7757 143.499 21.7757ZM152.123 29.0585C151.547 29.0585 151.004 28.994 150.494 28.8649C149.968 28.752 149.524 28.5665 149.161 28.3084L150.049 26.0583C150.527 26.397 151.127 26.5664 151.851 26.5664C152.41 26.5664 152.846 26.3889 153.159 26.0341C153.471 25.6953 153.628 25.1872 153.628 24.5098V11.275H156.712V24.4372C156.712 25.8566 156.309 26.9777 155.503 27.8003C154.713 28.639 153.586 29.0585 152.123 29.0585ZM155.157 9.14587C154.581 9.14587 154.104 8.96841 153.726 8.61358C153.364 8.25874 153.184 7.83124 153.184 7.33124C153.184 6.81507 153.364 6.38763 153.726 6.04889C154.104 5.69403 154.581 5.5166 155.157 5.5166C155.733 5.5166 156.201 5.68597 156.564 6.0247C156.942 6.3473 157.131 6.75862 157.131 7.25865C157.131 7.79094 156.95 8.24256 156.588 8.61358C156.226 8.96841 155.75 9.14587 155.157 9.14587ZM168.873 24.1952V21.5822L168.7 21.0257V16.4528C168.7 15.5657 168.429 14.8801 167.886 14.3962C167.343 13.8962 166.521 13.6462 165.419 13.6462C164.679 13.6462 163.947 13.759 163.223 13.9849C162.516 14.2107 161.915 14.5253 161.422 14.9285L160.213 12.7267C160.92 12.1945 161.759 11.7992 162.73 11.5412C163.716 11.267 164.736 11.1299 165.789 11.1299C167.697 11.1299 169.169 11.5815 170.205 12.4848C171.258 13.3719 171.784 14.751 171.784 16.6222V24.1952H168.873ZM164.728 24.3646C163.741 24.3646 162.878 24.2033 162.137 23.8807C161.397 23.542 160.821 23.0823 160.41 22.5016C160.016 21.9048 159.818 21.2353 159.818 20.4934C159.818 19.7675 159.991 19.1143 160.336 18.5336C160.698 17.9529 161.282 17.4932 162.088 17.1545C162.894 16.8157 163.963 16.6464 165.295 16.6464H169.12V18.6546H165.518C164.465 18.6546 163.757 18.8239 163.396 19.1627C163.034 19.4853 162.853 19.8885 162.853 20.3724C162.853 20.9208 163.075 21.3563 163.519 21.6789C163.963 22.0016 164.58 22.1628 165.369 22.1628C166.126 22.1628 166.8 21.9935 167.393 21.6547C168.001 21.316 168.437 20.816 168.7 20.1547L169.218 21.9693C168.922 22.7274 168.388 23.3161 167.615 23.7355C166.858 24.1549 165.896 24.3646 164.728 24.3646ZM179.814 24.3646C178.711 24.3646 177.65 24.2275 176.631 23.9533C175.627 23.6629 174.83 23.3161 174.238 22.9129L175.422 20.6144C176.014 20.9854 176.721 21.2918 177.544 21.5338C178.366 21.7757 179.188 21.8967 180.011 21.8967C180.981 21.8967 181.68 21.7676 182.108 21.5096C182.552 21.2515 182.774 20.9047 182.774 20.4692C182.774 20.1144 182.626 19.8482 182.33 19.6707C182.034 19.4772 181.647 19.332 181.171 19.2352C180.693 19.1385 180.159 19.0498 179.567 18.9691C178.991 18.8884 178.407 18.7836 177.815 18.6546C177.239 18.5094 176.713 18.3077 176.236 18.0497C175.759 17.7754 175.373 17.4125 175.077 16.9609C174.78 16.5093 174.632 15.9124 174.632 15.1705C174.632 14.3478 174.871 13.6381 175.347 13.0413C175.824 12.4283 176.491 11.9606 177.346 11.638C178.218 11.2992 179.246 11.1299 180.43 11.1299C181.319 11.1299 182.215 11.2267 183.12 11.4202C184.024 11.6138 184.773 11.888 185.365 12.2428L184.181 14.5414C183.555 14.1704 182.922 13.9204 182.281 13.7913C181.656 13.6462 181.03 13.5736 180.406 13.5736C179.468 13.5736 178.769 13.7107 178.309 13.9849C177.865 14.2591 177.642 14.6059 177.642 15.0253C177.642 15.4124 177.791 15.7027 178.087 15.8963C178.383 16.0899 178.769 16.2431 179.246 16.356C179.723 16.4689 180.249 16.5657 180.825 16.6464C181.417 16.7109 182.001 16.8157 182.577 16.9609C183.152 17.1061 183.679 17.3077 184.156 17.5658C184.649 17.8077 185.044 18.1545 185.34 18.6062C185.636 19.0578 185.784 19.6466 185.784 20.3724C185.784 21.1789 185.538 21.8806 185.044 22.4774C184.567 23.0742 183.885 23.542 182.996 23.8807C182.108 24.2033 181.047 24.3646 179.814 24.3646Z" fill="white"/>
<path d="M193.905 21.5912V21.1148H196.679V21.5912H193.905ZM199.365 20.1939H203.456V20.6702H199.365V20.1939ZM199.43 23.7082H204.093V24.1952H198.879V16.7854H203.931V17.2723H199.43V23.7082ZM206.143 24.1952V16.3408H206.683V24.1952H206.143ZM211.462 24.2375C210.893 24.2375 210.39 24.1175 209.951 23.8776C209.519 23.6377 209.177 23.306 208.926 22.8826C208.681 22.4592 208.559 21.9758 208.559 21.4324C208.559 20.8819 208.674 20.3986 208.904 19.9822C209.142 19.5588 209.465 19.2271 209.876 18.9872C210.286 18.7473 210.746 18.6273 211.257 18.6273C211.768 18.6273 212.225 18.7437 212.628 18.9766C213.038 19.2095 213.358 19.5376 213.589 19.961C213.826 20.3774 213.945 20.8608 213.945 21.4112C213.945 21.4324 213.941 21.4571 213.934 21.4853C213.934 21.5065 213.934 21.5312 213.934 21.5594H208.958V21.1466H213.643L213.427 21.3477C213.434 20.9173 213.341 20.5326 213.146 20.1939C212.959 19.8481 212.704 19.5799 212.38 19.3894C212.056 19.1918 211.681 19.093 211.257 19.093C210.839 19.093 210.465 19.1918 210.135 19.3894C209.811 19.5799 209.555 19.8481 209.368 20.1939C209.181 20.5326 209.088 20.9207 209.088 21.3583V21.4536C209.088 21.9052 209.188 22.3074 209.39 22.6603C209.598 23.006 209.883 23.2778 210.243 23.4754C210.602 23.6659 211.012 23.7612 211.473 23.7612C211.832 23.7612 212.167 23.6976 212.477 23.5706C212.793 23.4436 213.06 23.2495 213.276 22.9884L213.589 23.3377C213.344 23.6341 213.034 23.86 212.66 24.0152C212.293 24.1634 211.894 24.2375 211.462 24.2375ZM218.065 24.2375C217.518 24.2375 217.028 24.1175 216.597 23.8776C216.172 23.6377 215.834 23.306 215.582 22.8826C215.337 22.4592 215.215 21.9758 215.215 21.4324C215.215 20.8819 215.337 20.395 215.582 19.9716C215.834 19.5482 216.172 19.22 216.597 18.9872C217.028 18.7473 217.518 18.6273 218.065 18.6273C218.518 18.6273 218.928 18.7119 219.295 18.8813C219.67 19.0507 219.972 19.3047 220.202 19.6435L219.802 19.9293C219.601 19.647 219.349 19.4388 219.047 19.3047C218.745 19.1707 218.418 19.1036 218.065 19.1036C217.626 19.1036 217.23 19.2024 216.877 19.4C216.532 19.5905 216.259 19.8622 216.057 20.2151C215.863 20.5608 215.765 20.9666 215.765 21.4324C215.765 21.8981 215.863 22.3074 216.057 22.6603C216.259 23.006 216.532 23.2778 216.877 23.4754C217.23 23.6659 217.626 23.7612 218.065 23.7612C218.418 23.7612 218.745 23.6941 219.047 23.56C219.349 23.426 219.601 23.2178 219.802 22.9355L220.202 23.2213C219.972 23.56 219.67 23.8141 219.295 23.9835C218.928 24.1528 218.518 24.2375 218.065 24.2375ZM223.738 24.2375C223.241 24.2375 222.859 24.1034 222.593 23.8353C222.334 23.5671 222.205 23.2001 222.205 22.7344V17.4629H222.745V22.6815C222.745 23.0343 222.834 23.306 223.014 23.4965C223.194 23.6871 223.453 23.7823 223.792 23.7823C224.144 23.7823 224.435 23.68 224.666 23.4754L224.893 23.8458C224.748 23.9799 224.572 24.0787 224.364 24.1422C224.162 24.2057 223.954 24.2375 223.738 24.2375ZM221.169 19.1248V18.6696H224.536V19.1248H221.169ZM226.614 24.1952V18.6696H227.132V20.1833L227.078 20.0139C227.236 19.5694 227.503 19.2271 227.876 18.9872C228.25 18.7473 228.718 18.6273 229.28 18.6273V19.1459C229.258 19.1459 229.237 19.1459 229.215 19.1459C229.193 19.1389 229.172 19.1354 229.15 19.1354C228.524 19.1354 228.035 19.3294 227.682 19.7176C227.33 20.0986 227.153 20.6314 227.153 21.3159V24.1952H226.614ZM230.983 24.1952V18.6696H231.523V24.1952H230.983ZM231.253 17.3253C231.13 17.3253 231.026 17.2829 230.94 17.1982C230.853 17.1136 230.81 17.0147 230.81 16.9018C230.81 16.7819 230.853 16.6796 230.94 16.5949C231.026 16.5102 231.13 16.4678 231.253 16.4678C231.382 16.4678 231.486 16.5102 231.566 16.5949C231.652 16.6725 231.695 16.7713 231.695 16.8913C231.695 17.0113 231.652 17.1136 231.566 17.1982C231.486 17.2829 231.382 17.3253 231.253 17.3253ZM236.247 24.2375C235.701 24.2375 235.211 24.1175 234.779 23.8776C234.355 23.6377 234.017 23.306 233.765 22.8826C233.52 22.4592 233.398 21.9758 233.398 21.4324C233.398 20.8819 233.52 20.395 233.765 19.9716C234.017 19.5482 234.355 19.22 234.779 18.9872C235.211 18.7473 235.701 18.6273 236.247 18.6273C236.701 18.6273 237.111 18.7119 237.478 18.8813C237.852 19.0507 238.154 19.3047 238.385 19.6435L237.985 19.9293C237.784 19.647 237.532 19.4388 237.23 19.3047C236.927 19.1707 236.6 19.1036 236.247 19.1036C235.809 19.1036 235.412 19.2024 235.06 19.4C234.715 19.5905 234.441 19.8622 234.24 20.2151C234.045 20.5608 233.948 20.9666 233.948 21.4324C233.948 21.8981 234.045 22.3074 234.24 22.6603C234.441 23.006 234.715 23.2778 235.06 23.4754C235.412 23.6659 235.809 23.7612 236.247 23.7612C236.6 23.7612 236.927 23.6941 237.23 23.56C237.532 23.426 237.784 23.2178 237.985 22.9355L238.385 23.2213C238.154 23.56 237.852 23.8141 237.478 23.9835C237.111 24.1528 236.701 24.2375 236.247 24.2375ZM240.122 24.1952V18.6696H240.661V24.1952H240.122ZM240.392 17.3253C240.269 17.3253 240.165 17.2829 240.079 17.1982C239.992 17.1136 239.949 17.0147 239.949 16.9018C239.949 16.7819 239.992 16.6796 240.079 16.5949C240.165 16.5102 240.269 16.4678 240.392 16.4678C240.521 16.4678 240.625 16.5102 240.705 16.5949C240.791 16.6725 240.834 16.7713 240.834 16.8913C240.834 17.0113 240.791 17.1136 240.705 17.1982C240.625 17.2829 240.521 17.3253 240.392 17.3253ZM244.577 24.2375C244.109 24.2375 243.67 24.1704 243.26 24.0364C242.857 23.9023 242.543 23.733 242.321 23.5283L242.569 23.1049C242.785 23.2884 243.072 23.4472 243.432 23.5812C243.793 23.7082 244.181 23.7717 244.598 23.7717C245.188 23.7717 245.613 23.6765 245.872 23.4859C246.131 23.2954 246.261 23.0449 246.261 22.7344C246.261 22.5085 246.192 22.3321 246.055 22.2051C245.926 22.0711 245.749 21.9687 245.527 21.8981C245.304 21.8276 245.058 21.7711 244.792 21.7288C244.526 21.6794 244.26 21.6265 243.994 21.57C243.728 21.5135 243.483 21.4324 243.26 21.3265C243.037 21.2207 242.856 21.076 242.72 20.8925C242.59 20.702 242.526 20.4515 242.526 20.141C242.526 19.8587 242.605 19.6047 242.763 19.3788C242.921 19.153 243.159 18.973 243.476 18.839C243.793 18.6978 244.188 18.6273 244.663 18.6273C245.015 18.6273 245.368 18.6766 245.721 18.7755C246.081 18.8743 246.372 19.0048 246.595 19.1671L246.347 19.5905C246.109 19.4141 245.843 19.2871 245.548 19.2095C245.253 19.1318 244.954 19.093 244.652 19.093C244.106 19.093 243.702 19.1918 243.443 19.3894C243.191 19.587 243.065 19.834 243.065 20.1304C243.065 20.3633 243.13 20.5502 243.26 20.6914C243.396 20.8255 243.577 20.9313 243.799 21.009C244.022 21.0795 244.267 21.1395 244.533 21.1889C244.799 21.2313 245.066 21.2806 245.332 21.3371C245.598 21.3936 245.843 21.4747 246.066 21.5806C246.289 21.6794 246.466 21.8205 246.595 22.004C246.732 22.1804 246.8 22.4204 246.8 22.7238C246.8 23.0272 246.714 23.2919 246.541 23.5177C246.375 23.7435 246.127 23.9199 245.796 24.047C245.466 24.174 245.059 24.2375 244.577 24.2375ZM250.163 24.2375C249.667 24.2375 249.285 24.1034 249.019 23.8353C248.76 23.5671 248.631 23.2001 248.631 22.7344V17.4629H249.17V22.6815C249.17 23.0343 249.26 23.306 249.44 23.4965C249.62 23.6871 249.879 23.7823 250.217 23.7823C250.57 23.7823 250.861 23.68 251.092 23.4754L251.318 23.8458C251.174 23.9799 250.998 24.0787 250.789 24.1422C250.587 24.2057 250.379 24.2375 250.163 24.2375ZM247.594 19.1248V18.6696H250.962V19.1248H247.594ZM256.591 24.1952V22.9355L256.569 22.745V20.6702C256.569 20.1551 256.425 19.7634 256.137 19.4953C255.857 19.2271 255.443 19.093 254.896 19.093C254.507 19.093 254.143 19.1601 253.806 19.2941C253.474 19.4212 253.19 19.587 252.953 19.7917L252.683 19.4106C252.964 19.1636 253.301 18.973 253.698 18.839C254.093 18.6978 254.507 18.6273 254.939 18.6273C255.637 18.6273 256.173 18.8002 256.547 19.1459C256.921 19.4917 257.109 20.0069 257.109 20.6914V24.1952H256.591ZM254.561 24.2375C254.143 24.2375 253.78 24.174 253.471 24.047C253.169 23.9129 252.934 23.7259 252.769 23.4859C252.611 23.246 252.532 22.9708 252.532 22.6603C252.532 22.378 252.597 22.124 252.726 21.8981C252.863 21.6653 253.086 21.4783 253.395 21.3371C253.705 21.1889 254.119 21.1148 254.637 21.1148H256.709V21.5276H254.648C254.065 21.5276 253.655 21.6335 253.417 21.8452C253.187 22.0569 253.072 22.3216 253.072 22.6391C253.072 22.992 253.208 23.2742 253.482 23.4859C253.755 23.6976 254.14 23.8035 254.637 23.8035C255.112 23.8035 255.511 23.6976 255.835 23.4859C256.166 23.2742 256.41 22.9673 256.569 22.565L256.72 22.9249C256.569 23.3272 256.31 23.6483 255.943 23.8882C255.583 24.1211 255.123 24.2375 254.561 24.2375ZM259.073 21.5912V21.1148H261.847V21.5912H259.073Z" fill="#A2A2A2"/>
<path d="M16.9562 0.387184L0.647966 14.7127C-0.359493 15.608 0.207203 17.2598 1.56097 17.3833L14.2959 18.5874L6.66124 29.0228C6.31492 29.5013 6.36214 30.1651 6.78717 30.582C7.25941 31.0451 7.99929 31.0605 8.48727 30.6128L24.7955 16.2873C25.8029 15.392 25.2362 13.7402 23.8825 13.6167L11.1476 12.4126L18.7822 1.97719C19.1286 1.49864 19.0813 0.834858 18.6563 0.418058C18.4337 0.195171 18.1307 0.0670151 17.8127 0.0612392C17.4946 0.0554633 17.187 0.17253 16.9562 0.387184Z" fill="#FFD400"/>
</svg>
