<svg width="459" height="409" viewBox="0 0 459 409" fill="none" xmlns="http://www.w3.org/2000/svg">
<path d="M458.8 85.91V103.866C454.809 129.982 443.374 153.405 432.857 177.207C421.123 203.662 417.81 230.477 426.032 259.306C431.859 279.696 435.491 301.064 431.081 322.95C425.493 350.583 411.124 370.833 385.42 382.704C354.907 396.67 322.098 400.94 289.23 404.85C285.658 405.269 280.808 402.855 279.411 408.84H275.42C273.105 406.167 269.972 406.945 267.058 406.845C243.27 406.167 219.482 407.963 195.694 405.05C174.979 402.516 154.364 399.623 134.926 392.022C124.03 387.752 112.555 383.063 107.765 370.694C116.027 369.078 124.768 375.283 132.731 369.078H133.389L133.769 368.519L135.924 366.983C136.453 366.983 136.961 366.773 137.335 366.398C137.709 366.024 137.92 365.517 137.92 364.988C139.277 364.788 140.095 364.19 139.915 362.673L141.691 361.117C143.268 361.396 143.867 360.539 144.046 359.122L143.946 359.222C144.447 359.157 144.905 358.905 145.227 358.516C145.549 358.127 145.712 357.631 145.683 357.127V356.927C146.081 356.554 146.399 356.103 146.617 355.602C146.834 355.101 146.946 354.561 146.946 354.015C146.946 353.468 146.834 352.928 146.617 352.427C146.399 351.926 146.081 351.475 145.683 351.102V351.102L145.443 345.156L157.178 343.161C162.167 361.915 162.167 361.915 181.125 359.262C182.143 368.399 188.529 372.05 196.292 366.983C199.166 365.127 201.042 364.01 203.996 365.407C214.712 370.494 225.948 369.118 237.143 367.921C239.957 367.621 244.787 368.898 244.787 363.93C244.787 359.94 241.813 357.466 238.001 356.289C232.015 354.453 226.028 352.678 220.041 350.882L219.342 347.351C222.116 344.059 225.928 345.156 229.32 345.136C242.013 345.017 254.725 345.136 267.417 345.136C268.426 346.791 269.85 348.153 271.548 349.087C273.246 350.021 275.158 350.496 277.096 350.463C277.058 353.793 277.191 357.123 277.495 360.439C277.855 362.953 278.393 366.424 281.666 366.265C284.939 366.105 285.338 362.873 285.378 360.279C285.478 354.673 285.219 349.027 287.494 343.72L291.225 343.54C292.084 344.019 292.942 344.917 293.8 344.917C331.052 345.063 368.238 345.149 405.357 345.176C407.253 345.176 409.847 345.336 409.608 342.483C409.408 340.188 407.153 339.45 405.097 339.39C395.838 339.151 387.955 334.602 377.318 336.018C363.069 338.014 347.543 335.36 332.575 335.38C320.601 335.38 308.747 339.37 296.654 337.036C298.45 329.056 293.82 325.345 287.174 323.07L286.975 311.359C307.231 311.359 327.506 311.199 347.762 311.518C354.348 311.518 358.14 310.022 357.042 302.7C355.865 294.999 359.497 292.585 366.701 293.383C372.688 294.041 377.178 292.724 376.979 285.043C376.799 277.761 372.209 277.721 366.841 277.402C353.23 276.644 339.72 279.397 326.05 277.741C319.544 276.963 314.974 277.043 317.029 268.444C318.646 261.58 315.034 259.007 308.169 259.406C299.887 259.905 291.565 259.545 283.263 259.545H279.272C271.01 259.545 262.748 259.386 254.506 259.545C250.235 259.545 243.949 257.87 244.028 264.972C244.028 270.958 245.685 276.943 254.486 275.566C259.448 275.112 264.438 275.032 269.413 275.327V277.322C261.969 278.379 263.426 284.066 263.646 288.834C263.945 294.4 268.515 293.183 271.908 293.243C279.651 293.383 287.414 293.243 296.534 293.243L291.365 297.233C286.496 297.233 281.606 296.994 276.737 297.054C273.205 297.054 270.251 298.929 273.025 302.301C277.016 307.109 274.682 312.277 275.5 317.185C270.511 317.983 267.817 314.431 264.623 311.598C256.342 304.256 250.095 294.68 240.257 289.013C240.257 285.881 240.257 282.749 240.257 279.636C241.538 276.971 241.931 273.965 241.378 271.06C240.825 268.155 239.355 265.504 237.183 263.496C240.516 256.273 244.727 249.43 246.423 241.549C250.414 241.25 253.308 243.545 256.681 244.901C261.57 246.717 263.426 243.046 264.763 239.754C265.961 236.781 269.393 233.07 264.404 230.297C255.144 225.13 245.944 219.803 234.469 221.598C231.236 222.117 228.722 222.835 227.724 226.247C226.626 229.998 228.762 231.893 231.715 233.07C234.551 234.028 237.093 235.698 239.099 237.918L226.267 263.356C221.018 266.05 216.927 265.351 214.133 259.625C211.34 253.899 208.326 248.572 205.412 243.046C204.674 230.457 195.434 221.099 192.261 209.528C196.412 208.73 201.102 208.869 204.634 206.914C211.399 203.143 217.446 198.056 225.908 199.053C227.903 201.188 229.899 203.343 232.015 205.458C233.771 207.273 235.148 210.386 238.321 208.949C240.616 207.912 240.815 205.119 240.576 202.824C240.097 198.036 242.572 194.844 245.585 191.572C260.073 175.611 260.333 172.179 249.237 153.664C245.405 143.689 238.88 136.127 227.744 136.367C215.191 136.666 203.297 140.117 195.574 151.629C189.288 154.143 184.019 157.615 183.081 165.076L167.874 170.184C164.402 169.226 160.889 167.371 157.477 167.53C153.306 167.75 147.179 163.78 145.323 171.521C141.951 168.448 137.76 169.526 133.928 169.526C124.808 169.526 116.766 174.035 108.224 176.449C107.029 169.945 105.252 163.562 102.916 157.375C99.2238 147.539 93.9952 138.162 93.8156 127.129C93.3566 99.1975 105.211 76.2337 124.369 57.3C148.018 33.9171 177.374 20.071 209.244 11.9708C248.06 2.21464 287.753 1.05747 327.566 2.19469C351.088 2.53944 374.394 6.73837 396.556 14.6243C420.903 23.6622 442.795 36.7701 452.235 63.2853C454.849 70.6673 456.625 78.3485 458.8 85.91ZM181.604 89.9402C180.227 91.9353 178.91 91.7158 177.613 89.9402C177.613 73.9792 177.613 73.9792 162.127 73.9792C158.135 73.9792 154.144 74.1388 150.153 73.9792C143.687 73.64 141.691 76.9719 141.691 83.057C141.691 89.1421 144.864 90.1796 149.834 89.9402C153.825 89.7606 157.816 89.9402 161.807 89.9402V93.9304C162.087 113.044 159.113 109.492 183.321 109.891C197.689 110.051 197.709 109.891 197.609 93.9304H199.565C199.565 109.891 199.565 109.891 215.051 109.891C219.043 109.891 223.034 109.732 227.025 109.891C233.571 110.191 235.567 106.899 235.627 100.774C235.687 94.6486 232.454 93.5912 227.504 93.7708C223.513 93.9504 219.522 93.7708 215.53 93.7708V89.7805C215.53 73.9193 215.53 73.9193 199.565 73.8196H191.583C179.289 74.0789 177.234 77.3509 181.604 89.9402ZM323.296 93.9304C314.674 93.9304 306.053 94.0501 297.452 93.9304C292.483 93.9304 289.25 94.7085 289.25 100.853C289.25 106.998 291.964 108.694 297.232 107.956C305.894 106.719 308.328 110.829 307.51 118.73C307.211 121.722 306.033 126.591 310.304 127.209C319.763 128.586 329.901 129.803 338.782 126.73C344.35 124.735 340.119 116.495 341.596 111.248C341.835 110.37 342.115 109.253 343.951 109.652C344.23 110.151 344.968 110.869 345.068 111.647C347.064 127.867 347.064 127.867 363.887 127.867C367.539 127.867 371.191 127.867 374.823 127.768C378.815 127.648 380.611 125.493 381.15 121.583C382.147 114.281 379.533 111.069 371.89 111.847C365.643 112.485 359.437 112.904 362.869 102.789C364.865 96.963 362.131 93.5513 355.186 93.8705C345.926 94.2895 336.627 93.9903 327.367 94.0102L323.296 93.9304ZM237.882 127.688C240.855 127.688 243.869 127.468 246.802 127.688C253.049 128.286 255.683 126.052 255.603 119.368C255.603 113.064 252.929 111.388 247.201 111.607C240.616 111.926 233.99 111.767 227.385 111.607C222.036 111.607 219.542 113.941 219.542 119.368C219.542 124.795 221.378 127.608 226.985 127.528C230.618 127.688 234.25 127.688 237.882 127.688ZM403.042 89.7805C406.015 89.7805 409.029 89.6808 411.962 89.7805C416.952 89.9601 421.142 89.7805 421.023 82.7976C420.903 76.6127 418.788 73.5403 412.302 73.7797C405.816 74.0191 399.749 74.0191 393.463 73.7797C387.176 73.5403 384.981 76.8921 384.921 82.9572C384.862 89.0224 388.214 90.0399 393.124 89.7805C396.436 89.7805 399.749 89.9003 403.122 89.9003L403.042 89.7805ZM199.685 127.688C202.978 127.688 206.271 127.688 209.663 127.688C214.912 127.828 217.646 125.693 217.646 120.126C217.646 114.56 215.311 111.727 209.404 111.727C202.499 111.886 195.574 111.727 188.649 111.727C183.64 111.727 181.724 114.48 181.664 119.249C181.604 124.017 183.121 127.688 188.829 127.688C192.441 127.688 196.073 127.688 199.685 127.688ZM364.586 89.7805C367.24 89.7805 369.894 89.6209 372.568 89.7805C378.016 90.1796 381.229 88.9226 381.269 82.3188C381.309 75.7149 379.174 73.4405 372.568 73.8196C366.587 74.2012 360.588 74.2012 354.607 73.8196C348.062 73.4006 346.984 76.7923 346.964 82.3387C346.944 87.8852 348.96 90.3192 354.568 89.8604C357.94 89.7805 361.213 89.9003 364.586 89.9003V89.7805ZM382.926 107.737C386.578 107.737 390.25 107.577 393.882 107.737C398.931 108.016 401.086 106.001 401.046 100.794C401.006 95.5864 399.35 93.4715 394.101 93.6511C386.817 93.8705 379.493 93.8705 372.149 93.6511C367.1 93.5114 364.945 95.4068 364.965 100.614C364.985 105.821 366.681 108.056 371.93 107.737C375.622 107.737 379.274 107.836 382.926 107.836V107.737ZM254.605 93.7708C251.632 93.7708 248.618 93.8905 245.685 93.7708C240.855 93.5513 239.279 96.0652 239.438 100.494C239.578 104.485 239.438 109.053 244.847 109.432C251.093 109.871 257.399 109.712 263.666 109.432C267.118 109.432 268.754 107.158 269.353 103.726C270.85 95.1674 269.014 93.8705 254.605 93.8905V93.7708Z" fill="#F6ECE0"/>
<path d="M28.3582 348.069C22.3713 352.199 17.5617 356.349 21.9522 364.948C23.9478 368.698 21.1938 371.631 16.2845 371.611C9.93835 371.611 5.14878 368.18 0.319302 364.948V354.972C3.71191 346.553 9.97826 339.929 7.78304 328.656C5.38826 316.087 13.2312 311.797 26.5023 315.628L28.3582 348.069Z" fill="#685C58"/>
<path d="M28.3582 348.069L26.5023 315.628C38.6159 316.426 50.4501 319.618 65.7368 318.86C35.6024 294.001 20.5752 267.466 50.51 234.407C67.0739 248.472 85.0547 247.974 103.794 239.574C105.989 245.32 111.417 246.976 116.227 249.43L118.502 261.101C99.3436 264.593 80.2252 266.349 63.0626 254.538C57.2153 250.547 55.3594 253.241 52.4856 257.61C49.113 262.678 49.0731 267.586 54.0822 270.499C66.1758 277.382 78.6886 283.527 93.0772 276.005C94.9531 275.007 97.6073 275.506 99.9023 275.307C99.8671 275.84 99.9461 276.374 100.134 276.874C100.322 277.375 100.615 277.829 100.993 278.207C101.371 278.584 101.825 278.877 102.325 279.065C102.826 279.253 103.36 279.332 103.894 279.297L107.885 285.282C107.863 285.803 107.948 286.323 108.133 286.81C108.318 287.297 108.6 287.741 108.962 288.116C109.324 288.491 109.758 288.789 110.239 288.991C110.719 289.193 111.235 289.296 111.757 289.293L113.752 291.288C113.7 292.062 113.869 292.835 114.24 293.517C114.611 294.199 115.169 294.761 115.848 295.138C126.824 307.668 134.228 322.471 142.13 337.036L143.867 344.697C143.867 347.031 143.408 349.465 145.862 351.062C145.862 353.057 145.862 354.952 145.862 356.887V357.087L143.887 359.122L143.986 359.022L141.691 361.117L139.875 362.893L137.88 365.207L135.884 367.202L133.729 368.738L133.349 369.297H132.671C123.85 368.379 115.029 369.097 106.089 367.88C90.5228 365.746 75.0565 361.616 59.0913 363.351C55.4791 363.351 51.867 363.351 48.2748 363.172C31.9304 362.613 31.9304 362.593 28.3582 348.069ZM90.4829 333.724C89.046 334.003 88.4872 334.721 89.0061 335.719C89.1794 335.979 89.406 336.199 89.671 336.364C89.936 336.529 90.2332 336.636 90.5427 336.677C91.5006 336.816 92.5384 336.497 92.259 335.28C92.0395 334.602 91.0017 334.143 90.4829 333.724ZM79.4669 327.898C79.2473 328.417 78.7285 329.055 78.8682 329.434C79.0079 329.813 79.8261 329.913 80.345 330.153C80.5844 329.634 81.1033 328.995 80.9437 328.636C80.784 328.277 79.9857 328.138 79.4669 327.898V327.898Z" fill="#195CAC"/>
<path d="M103.774 239.574C85.0347 247.974 67.0539 248.472 50.49 234.407C63.1025 208.47 83.0191 189.756 108.364 176.369C116.905 173.955 124.948 169.486 134.068 169.446C137.9 169.446 142.051 168.408 145.463 171.441L145.862 171.58C145.862 173.995 147.858 174.713 149.355 176.01C157.956 183.811 159.872 191.073 154.903 201.667C152.629 207.134 151.424 212.985 151.35 218.905C150.772 227.105 150.153 235.285 149.554 243.485C140.392 248.013 130.16 249.932 119.979 249.031C119.28 247.974 118.522 245.998 117.983 246.018C106.528 246.617 108.264 238.656 108.005 231.494C107.725 223.314 109.521 214.914 106.867 206.934H103.774V239.574Z" fill="#EBAB28"/>
<path d="M119.899 249.071C130.08 249.972 140.312 248.053 149.474 243.524C147.658 254.857 152.727 260.024 163.963 261.201C171.945 262.039 179.928 264.533 187.911 266.309C191.762 267.825 195.494 269.92 199.885 268.922C198.408 262.478 196.691 256.213 202 250.707C203.756 248.891 202 247.056 201.421 245.28L205.412 243.085C208.326 248.612 211.399 254.059 214.133 259.665C216.868 265.271 221.018 266.089 226.267 263.396C229.879 266.927 233.451 263.954 237.064 263.396C239.235 265.404 240.705 268.055 241.258 270.96C241.812 273.865 241.418 276.871 240.137 279.536C239.718 276.923 239.299 274.309 238.64 270.299C235.706 278.678 235.806 286.36 230.338 292.684C235.367 293.502 237.083 289.552 240.316 288.913C250.155 294.58 256.401 304.156 264.683 311.498C267.876 314.331 270.571 317.883 275.56 317.085C276.219 317.552 276.736 318.192 277.053 318.935C277.37 319.679 277.475 320.495 277.356 321.294C275.879 321.613 273.684 321.673 274.342 323.828C275.36 327.14 278.334 327.3 281.307 327.18C281.447 330.472 284.241 333.764 281.307 337.155L279.311 336.996C275.021 328.716 266.958 329.674 259.555 329.015C259.056 326.641 260.712 321.554 255.184 325.524C242.751 318.501 231.755 309.563 220.919 300.345C223.972 293.662 222.914 289.991 214.513 291.268C212.915 291.435 211.31 291.521 209.703 291.527L197.889 287.297C192.82 283.906 187.013 285.302 181.544 284.943C162.107 283.985 142.809 282.19 123.99 276.963C122.174 271.676 120.338 266.369 118.502 261.002L116.227 249.39L119.899 249.071ZM212.437 270.239C209.404 268.942 207.328 268.623 205.233 270.239C207.328 271.815 209.404 271.696 212.437 270.239V270.239ZM234.549 272.613L234.429 273.89C234.589 273.691 234.888 273.511 234.888 273.292C234.888 273.072 234.689 272.833 234.549 272.613V272.613Z" fill="#DE8386"/>
<path d="M291.365 297.074L296.534 293.084C287.414 293.084 279.651 293.183 271.908 293.084C268.515 293.084 263.925 294.241 263.646 288.674C263.386 283.906 261.969 278.22 269.413 277.162H291.365C303.12 275.626 297.552 286.061 300.505 291.428C302.321 275.247 302.321 275.247 291.365 275.187C279.032 274.708 284.8 265.212 283.383 259.226C291.685 259.226 300.006 259.585 308.288 259.087C315.233 258.688 318.766 261.261 317.149 268.125C315.153 276.724 319.664 276.644 326.169 277.422C339.84 279.058 353.35 276.325 366.961 277.083C372.329 277.402 376.939 277.442 377.098 284.724C377.298 292.405 372.808 293.722 366.821 293.064C359.617 292.266 355.984 294.68 357.162 302.381C358.259 309.703 354.468 311.299 347.882 311.199C327.626 310.88 307.35 311.06 287.095 311.04C281.527 304.316 291.186 302.141 291.365 297.074ZM350.636 294.181C344.011 293.842 336.806 289.532 328.983 296.016C337.265 297.592 343.751 295.019 350.616 294.181H350.636ZM305.973 294.181C311.841 293.343 317.568 299.308 326.03 294.56C318.047 292.445 312.06 293.443 305.953 294.241L305.973 294.181Z" fill="#E5D7CD"/>
<path d="M181.225 359.122C162.167 361.776 162.167 361.776 157.277 343.022C156.639 340.328 156.02 337.655 155.401 335.041C151.849 318.601 148.31 302.161 144.785 285.722C162.21 286.016 179.608 287.208 196.911 289.293L200.623 301.403C197.45 306.69 192.461 312.097 193.558 318.162C195.434 328.577 192.062 335.061 181.944 339.371C185.656 341.366 188.968 337.375 191.603 340.069C187.611 346.174 181.285 351.002 180.966 359.142L181.225 359.122Z" fill="#195CAC"/>
<path d="M327.287 93.8902C336.547 93.8902 345.847 94.1695 355.106 93.7506C362.051 93.4313 364.765 96.843 362.79 102.669C359.357 112.784 365.564 112.365 371.81 111.727C379.453 110.949 382.068 114.161 381.07 121.463C380.531 125.453 378.695 127.448 374.744 127.648C371.111 127.767 367.459 127.747 363.807 127.747C346.944 127.747 346.944 127.747 344.988 111.527C344.889 110.729 344.15 110.011 343.871 109.532C342.035 109.133 341.755 110.25 341.516 111.128C340.039 116.375 344.27 124.695 338.702 126.61C329.821 129.683 319.684 128.466 310.224 127.089C305.953 126.471 307.131 121.602 307.43 118.61C308.248 110.629 305.814 106.639 297.153 107.836C291.964 108.574 289.17 106.639 289.17 100.733C289.17 94.8279 292.423 93.7705 297.352 93.7705C305.953 93.97 314.575 93.7705 323.196 93.7705V107.736C323.455 109.871 324.194 111.906 326.788 111.248C329.083 110.669 328.784 109.093 327.187 107.716L327.287 93.8902Z" fill="#E5D7CD"/>
<path d="M249.237 153.625C260.333 172.139 260.073 175.571 245.585 191.532C242.572 194.824 240.097 197.996 240.576 202.784C240.815 205.079 240.576 207.872 238.321 208.909C235.148 210.346 233.771 207.233 232.015 205.418C230.019 203.303 228.023 201.148 225.908 199.014C221.488 190.693 216.239 182.839 210.242 175.571C209.979 173.73 209.276 171.98 208.192 170.469C207.108 168.958 205.675 167.731 204.016 166.892C203.831 165.765 203.419 164.686 202.805 163.723C202.191 162.759 201.387 161.93 200.443 161.286C200.064 159.41 199.685 157.535 199.286 155.679C206.43 155.999 213.255 152.308 220.599 154.143C230.059 156.557 239.718 155.62 249.237 153.625Z" fill="#EBAB28"/>
<path d="M200.463 161.346C201.402 161.991 202.2 162.821 202.807 163.785C203.415 164.749 203.819 165.827 203.996 166.952C203.477 170.543 197.33 172.937 200.563 176.788C203.197 179.96 207.029 176.668 210.242 175.631C216.24 182.905 221.489 190.766 225.908 199.093C217.446 198.096 211.399 203.084 204.634 206.954C201.102 208.949 196.412 208.77 192.261 209.568C188.11 210.366 185.975 207.832 183.62 205.318C182.941 203.981 182.243 202.665 181.624 201.328C181.555 200.912 181.555 200.487 181.624 200.071C181.046 193.587 183.42 186.744 180.068 180.339C174.679 182.853 176.815 188.599 173.702 191.612C167.036 185.746 168.194 177.646 167.914 170.144L183.121 165.057C190.784 172.498 194.915 163.6 200.463 161.346Z" fill="#DE8386"/>
<path d="M296.753 336.797C308.867 339.031 320.701 335.161 332.675 335.141C347.643 335.141 363.169 337.694 377.418 335.779C388.055 334.363 395.937 338.911 405.197 339.151C407.193 339.151 409.508 339.949 409.707 342.243C409.947 345.096 407.353 344.937 405.457 344.937C368.284 344.937 331.099 344.85 293.9 344.677C293.042 344.677 292.183 343.78 291.325 343.301L294.219 337.136L296.753 336.797Z" fill="#EEE0D3"/>
<path d="M180.966 359.122C181.285 350.982 187.531 346.154 191.603 340.049C188.968 337.315 185.616 341.346 181.944 339.35C192.062 335.041 195.434 328.557 193.558 318.142C192.461 312.157 197.55 306.67 200.623 301.383L213.096 337.176C214.077 341.146 216.275 344.711 219.382 347.371C219.622 348.548 219.841 349.725 220.081 350.902L180.966 359.122Z" fill="#254D9E"/>
<path d="M183.6 205.318C185.935 207.832 188.27 210.346 192.221 209.567C195.434 221.199 204.634 230.496 205.373 243.086L201.381 245.28C195.394 246.198 191.243 251.784 184.977 252.203C180.786 244.542 180.846 233.529 165.839 232.412C177.054 224.73 178.052 213.777 183.6 205.318Z" fill="#EBAB28"/>
<path d="M180.966 359.122L220.081 350.842C226.067 352.638 232.054 354.414 238.041 356.249C241.853 357.426 244.847 360 244.827 363.89C244.827 368.858 239.997 367.581 237.183 367.881C226.028 369.078 214.752 370.454 204.035 365.367C201.082 363.97 199.206 365.087 196.332 366.943C188.569 372.011 182.183 368.359 181.165 359.222L180.966 359.122Z" fill="#685C58"/>
<path d="M249.237 153.624C239.718 155.44 230.059 156.477 220.599 154.123C213.156 152.288 206.43 155.979 199.286 155.659L195.574 151.629C203.237 140.157 215.131 136.706 227.684 136.446C238.88 136.167 245.465 143.769 249.237 153.624Z" fill="#F2BC2E"/>
<path d="M181.604 200.071C181.535 200.487 181.535 200.912 181.604 201.328C174.48 206.475 172.285 215.294 166.378 221.499C161.388 226.686 161.588 226.905 153.785 225.07C161.368 214.975 167.196 204.341 165.879 191.153C164.581 178.424 157.357 171.202 145.922 171.521L145.523 171.381C147.379 163.64 153.506 167.61 157.676 167.391C161.089 167.231 164.601 169.087 168.074 170.044C168.353 177.646 167.196 185.646 173.861 191.512C176.356 194.445 179.01 197.258 181.604 200.071Z" fill="#DFA532"/>
<path d="M239.119 237.719C237.113 235.498 234.571 233.829 231.735 232.871C228.722 231.694 226.586 229.798 227.744 226.047C228.742 222.636 231.256 221.917 234.489 221.399C245.884 219.603 255.084 224.93 264.424 230.097C269.413 232.871 265.981 236.582 264.783 239.554C263.446 242.846 261.59 246.517 256.701 244.702C253.328 243.445 250.335 241.051 246.443 241.35C246.216 240.62 245.844 239.944 245.348 239.362C244.852 238.781 244.244 238.306 243.559 237.966C242.874 237.627 242.127 237.43 241.364 237.387C240.601 237.345 239.837 237.458 239.119 237.719V237.719Z" fill="#A4A2A1"/>
<path d="M197.57 93.8906C197.669 109.852 197.57 109.852 183.281 109.852C159.073 109.552 162.047 113.104 161.768 93.8906H197.57Z" fill="#E5D7CD"/>
<path d="M237.882 127.688C234.25 127.688 230.618 127.688 226.985 127.688C221.378 127.688 219.542 124.715 219.542 119.528C219.542 114.34 222.036 111.687 227.385 111.767C233.99 111.767 240.616 112.006 247.201 111.767C252.929 111.507 255.543 113.223 255.603 119.528C255.603 126.211 253.049 128.446 246.802 127.847C243.849 127.548 240.855 127.688 237.882 127.688Z" fill="#E5D7CD"/>
<path d="M161.648 89.9603C157.657 89.9603 153.665 89.7608 149.674 89.9603C144.705 90.1997 141.472 89.2221 141.532 83.0771C141.592 76.9321 143.527 73.6601 150.113 73.9794C154.104 74.1589 158.096 73.9794 162.087 73.9794C177.633 73.9794 177.633 73.9794 177.573 89.9403L161.648 89.9603Z" fill="#E5D7CD"/>
<path d="M215.53 93.7706C219.522 93.7706 223.513 93.9701 227.504 93.7706C232.493 93.5312 235.706 94.5288 235.647 100.654C235.587 106.779 233.651 110.071 227.045 109.771C223.054 109.572 219.063 109.771 215.071 109.771C199.525 109.771 199.525 109.771 199.585 93.8105L215.53 93.7706Z" fill="#E5D7CD"/>
<path d="M403.122 89.9001C399.829 89.9001 396.516 89.7604 393.143 89.9001C388.234 90.1595 384.881 89.2617 384.941 83.0768C385.001 76.8919 386.937 73.6598 393.483 73.8992C400.028 74.1386 406.055 74.1386 412.322 73.8992C418.588 73.6598 420.923 76.7323 421.043 82.9172C421.162 89.94 417.051 90.0797 411.982 89.9001C408.989 89.7804 406.015 89.9001 403.122 89.9001Z" fill="#E5D7CD"/>
<path d="M181.604 89.94C177.214 77.3508 179.269 74.0788 191.583 73.979H199.565C215.53 73.979 215.53 73.979 215.53 89.94H181.604Z" fill="#E5D7CD"/>
<path d="M199.685 127.688C196.073 127.688 192.441 127.688 188.829 127.688C183.121 127.688 181.604 124.416 181.604 119.388C181.604 114.36 183.6 111.886 188.589 111.866C195.514 111.866 202.439 111.866 209.344 111.866C215.331 111.727 217.626 114.48 217.506 120.266C217.386 126.052 214.752 127.967 209.524 127.827C206.271 127.688 202.978 127.688 199.685 127.688Z" fill="#E5D7CD"/>
<path d="M269.413 275.327C264.474 274.997 259.518 275.037 254.585 275.447C245.785 276.743 244.188 270.798 244.128 264.853C244.128 257.75 250.335 259.526 254.605 259.426C262.847 259.226 271.109 259.426 279.371 259.426C278.194 265.99 283.921 276.923 269.413 275.327Z" fill="#E5D7CD"/>
<path d="M364.586 89.9001C361.273 89.9001 357.94 89.7006 354.607 89.9001C349.04 90.2991 346.984 87.905 347.004 82.3785C347.024 76.852 348.102 73.4403 354.647 73.8593C360.628 74.2409 366.627 74.2409 372.608 73.8593C379.114 73.4204 381.309 75.8544 381.289 82.4383C381.269 89.0222 378.036 90.2991 372.588 89.9001C369.894 89.7804 367.2 89.9001 364.586 89.9001Z" fill="#E5D7CD"/>
<path d="M382.926 107.836C379.274 107.836 375.622 107.657 371.99 107.836C366.741 108.156 365.045 105.702 365.025 100.714C365.005 95.726 367.16 93.6112 372.209 93.7508C379.493 93.9902 386.817 93.9902 394.161 93.7508C399.41 93.5713 401.086 95.9056 401.106 100.893C401.126 105.881 398.991 108.116 393.942 107.836C390.25 107.737 386.578 107.836 382.926 107.836Z" fill="#E5D7CD"/>
<path d="M254.605 93.8706C269.014 93.8706 270.85 95.1674 269.353 103.846C268.754 107.278 267.118 109.453 263.666 109.552C257.399 109.732 251.093 109.891 244.847 109.552C239.398 109.173 239.578 104.684 239.438 100.614C239.279 96.1849 240.855 93.6711 245.685 93.8906C248.658 94.0103 251.632 93.8906 254.605 93.8706Z" fill="#E5D7CD"/>
<path d="M219.382 347.271C216.275 344.611 214.077 341.046 213.096 337.076C227.923 336.138 243.031 337.734 257.479 332.966H259.475C260.512 338.093 267.757 339.051 267.457 344.937C254.765 344.937 242.053 344.937 229.36 344.937C225.968 345.156 222.156 343.979 219.382 347.271Z" fill="#EEE0D3"/>
<path d="M291.365 297.073C291.206 302.141 281.547 304.316 287.095 311.039C287.095 315.03 287.234 318.84 287.294 322.751C285.298 324.506 285.458 326.861 285.538 329.175L281.387 327.2L277.396 321.214C277.515 320.415 277.41 319.599 277.093 318.856C276.776 318.113 276.259 317.472 275.6 317.005C274.781 312.077 277.056 306.929 273.125 302.121C270.351 298.749 273.305 296.914 276.837 296.874C281.587 296.834 286.476 296.994 291.365 297.073Z" fill="#A4A2A1"/>
<path d="M239.119 237.719C239.829 237.48 240.579 237.384 241.327 237.437C242.074 237.491 242.803 237.692 243.472 238.03C244.141 238.368 244.735 238.836 245.221 239.406C245.707 239.976 246.075 240.637 246.303 241.35C244.607 249.331 240.316 256.114 237.064 263.296C233.451 263.915 229.879 266.888 226.267 263.296L239.119 237.719Z" fill="#DFA532"/>
<path d="M279.391 336.936L281.387 337.096C283.163 339.53 286.795 340.148 287.653 343.48C285.378 348.787 285.658 354.433 285.538 360.04C285.538 362.693 285.099 366.025 281.826 366.025C278.553 366.025 278.014 362.713 277.655 360.199C277.351 356.883 277.217 353.553 277.256 350.224C277.356 345.834 277.475 341.405 277.575 336.996C278.181 337.009 278.787 336.989 279.391 336.936V336.936Z" fill="#A4A2A1"/>
<path d="M181.604 89.9399H215.53V93.9301H199.565H161.648C161.648 92.6134 161.648 91.2966 161.648 89.9399L177.613 89.7803C178.93 91.7754 180.247 91.8752 181.604 89.9399Z" fill="#F1E6DB"/>
<path d="M59.0713 363.112C75.0365 361.376 90.5028 365.506 106.069 367.641C115.009 368.858 123.83 368.14 132.651 369.058C124.668 375.263 115.967 369.058 107.705 370.674C94.6937 366.524 80.9636 367.162 67.6726 364.868C64.7789 364.389 61.6657 365.107 59.0713 363.112Z" fill="#254D9E"/>
<path d="M277.535 337.176C277.535 341.585 277.316 346.014 277.216 350.403C275.278 350.436 273.365 349.962 271.668 349.027C269.97 348.093 268.546 346.731 267.537 345.076C267.777 339.091 260.532 338.173 259.555 333.106C265.835 332.404 272.17 333.838 277.535 337.176Z" fill="#DE8386"/>
<path d="M195.574 151.629L199.226 155.779C199.625 157.635 200.004 159.51 200.383 161.386C194.855 163.68 190.724 172.538 183.081 165.096C184.079 157.615 189.347 154.103 195.574 151.629Z" fill="#685C58"/>
<path d="M285.518 329.195C285.518 326.881 285.259 324.527 287.274 322.771C293.92 325.045 298.55 328.756 296.753 336.737L294.239 337.076C289.09 336.976 287.873 332.487 285.518 329.195Z" fill="#DE8386"/>
<path d="M155.302 335.021C155.92 337.714 156.539 340.388 157.178 343.001L145.443 344.997C144.911 344.832 144.391 344.632 143.887 344.398L142.15 336.737L155.302 335.021Z" fill="#E5D7CD"/>
<path d="M269.413 275.327C283.941 277.003 278.214 266.069 279.391 259.366H283.383C284.78 265.351 279.012 274.828 291.365 275.327V277.322H269.413V275.327Z" fill="#F1E6DB"/>
<path d="M285.518 329.195C287.873 332.427 289.09 336.916 294.239 337.076L291.365 343.301L287.633 343.48C286.775 340.148 283.143 339.49 281.367 337.096C284.261 333.784 281.467 330.492 281.367 327.12L285.518 329.195Z" fill="#B36C73"/>
<path d="M240.237 288.854C237.083 289.492 235.367 293.443 230.258 292.625C235.726 286.3 235.627 278.659 238.56 270.239C239.219 274.23 239.638 276.863 240.057 279.477C240.177 282.589 240.197 285.721 240.237 288.854Z" fill="#B36C73"/>
<path d="M323.296 107.836V93.8706H327.287V107.836H323.296Z" fill="#F1E6DB"/>
<path d="M143.887 344.578C144.391 344.812 144.911 345.012 145.443 345.176L145.802 350.942C143.428 349.346 143.807 346.912 143.887 344.578Z" fill="#254D9E"/>
<path d="M145.782 356.828C145.782 354.833 145.782 352.957 145.782 351.002C146.181 351.375 146.499 351.826 146.716 352.327C146.934 352.828 147.046 353.369 147.046 353.915C147.046 354.461 146.934 355.001 146.716 355.502C146.499 356.003 146.181 356.454 145.782 356.828Z" fill="#254D9E"/>
<path d="M143.887 359.122L145.683 357.127C145.685 357.623 145.502 358.103 145.17 358.472C144.838 358.841 144.38 359.072 143.887 359.122Z" fill="#254D9E"/>
<path d="M141.691 361.117L144.046 359.122C143.807 360.439 143.208 361.297 141.691 361.117Z" fill="#254D9E"/>
<path d="M137.88 365.107L139.875 362.793C140.055 364.309 139.237 364.908 137.88 365.107Z" fill="#254D9E"/>
<path d="M135.884 367.103L137.88 365.107C137.88 365.637 137.669 366.144 137.295 366.518C136.921 366.892 136.413 367.103 135.884 367.103Z" fill="#254D9E"/>
<path d="M133.709 368.539L135.864 367.003L133.709 368.539Z" fill="#254D9E"/>
<path d="M118.502 261.102C120.338 266.389 122.174 271.696 123.99 277.063C120.198 280.195 110.958 275.327 111.876 285.342H107.885L103.894 279.357C103.926 278.825 103.844 278.292 103.655 277.793C103.466 277.294 103.173 276.842 102.796 276.465C102.419 276.087 101.966 275.795 101.467 275.605C100.968 275.416 100.435 275.335 99.9023 275.367C97.6073 275.566 94.9531 275.068 93.0772 276.065C78.6886 283.587 66.1758 277.442 54.0822 270.559C49.0731 267.686 49.113 262.738 52.4856 257.67C55.3594 253.301 57.2153 250.568 63.0626 254.598C80.2252 266.349 99.3436 264.593 118.502 261.102Z" fill="#13579F"/>
<path d="M155.302 335.021L142.15 337.016C134.168 322.552 126.844 307.748 115.868 295.119L118.043 291.288L144.685 285.702C148.224 302.141 151.763 318.581 155.302 335.021Z" fill="#F1E6DB"/>
<path d="M119.899 249.071L116.227 249.43C111.417 246.976 105.989 245.32 103.794 239.574V206.954H106.688C109.342 214.935 107.546 223.334 107.825 231.514C108.085 238.677 106.348 246.637 117.803 246.039C118.442 246.039 119.2 248.014 119.899 249.071Z" fill="#DFA532"/>
<path d="M90.4829 333.724C91.0017 334.143 92.0395 334.602 92.259 335.3C92.6182 336.517 91.5007 336.836 90.5427 336.697C90.2332 336.656 89.936 336.549 89.671 336.384C89.4061 336.219 89.1794 335.999 89.0061 335.739C88.5072 334.722 89.046 334.003 90.4829 333.724Z" fill="#254D9E"/>
<path d="M79.4669 327.898C79.9857 328.138 80.784 328.258 80.9436 328.637C81.1033 329.016 80.5844 329.634 80.3449 330.153C79.8261 329.913 79.0278 329.814 78.8682 329.435C78.7085 329.056 79.2473 328.417 79.4669 327.898Z" fill="#254D9E"/>
<path d="M107.905 285.163H111.896C111.896 286.459 111.896 287.756 111.896 289.153L111.757 289.293C111.226 289.294 110.702 289.186 110.215 288.975C109.729 288.764 109.291 288.456 108.929 288.068C108.568 287.68 108.29 287.222 108.114 286.722C107.938 286.222 107.866 285.691 107.905 285.163V285.163Z" fill="#254D9E"/>
<path d="M99.9023 275.327C100.435 275.295 100.968 275.376 101.467 275.565C101.966 275.754 102.419 276.047 102.796 276.424C103.173 276.801 103.466 277.254 103.655 277.753C103.844 278.251 103.926 278.785 103.894 279.317C103.36 279.352 102.826 279.273 102.325 279.085C101.825 278.897 101.371 278.604 100.993 278.226C100.615 277.849 100.322 277.394 100.134 276.894C99.9461 276.394 99.8671 275.86 99.9023 275.327V275.327Z" fill="#254D9E"/>
<path d="M118.043 291.288L115.868 295.058C115.198 294.69 114.645 294.142 114.271 293.475C113.897 292.809 113.717 292.051 113.752 291.288L113.892 291.168L118.043 291.288Z" fill="#254D9E"/>
<path d="M113.752 291.288L111.757 289.293L111.896 289.153L113.892 291.148L113.752 291.288Z" fill="#254D9E"/>
<path d="M145.782 171.581C157.297 171.361 164.522 178.484 165.739 191.213C167.056 204.301 161.229 214.935 153.645 225.13C161.448 226.965 161.249 226.746 166.238 221.558C172.225 215.413 174.34 206.535 181.465 201.388C182.163 202.724 182.862 204.041 183.46 205.378C177.892 213.837 176.895 224.791 165.819 232.472C180.826 233.589 180.766 244.602 184.957 252.263C186.374 256.872 188.549 261.321 187.751 266.369C179.768 264.593 171.786 262.099 163.803 261.261C152.568 260.084 147.499 254.917 149.315 243.585C149.913 235.385 150.532 227.205 151.111 219.005C151.184 213.085 152.39 207.234 154.663 201.767C159.632 191.173 157.716 183.91 149.115 176.11C147.838 174.753 145.782 174.035 145.782 171.581Z" fill="#215DA4"/>
<path d="M257.439 332.946C242.951 337.734 227.884 336.138 213.056 337.076L200.623 301.263L196.911 289.292L197.889 287.437L209.683 291.527C209.104 299.946 213.834 301.622 220.899 300.345C231.735 309.523 242.731 318.501 255.164 325.524L256.92 329.514L257.439 332.946Z" fill="#F1E6DB"/>
<path d="M197.889 287.298L196.911 289.153C179.573 287.105 162.141 285.953 144.685 285.702L118.043 291.288L113.912 291.088L111.916 289.093C111.916 287.796 111.916 286.5 111.916 285.103C110.998 275.127 120.238 279.956 124.03 276.823C142.849 282.11 162.147 283.906 181.584 284.804C187.013 285.303 192.82 283.986 197.889 287.298Z" fill="#215DA4"/>
<path d="M187.911 266.309C188.709 261.261 186.534 256.812 185.117 252.203C191.383 251.784 195.454 246.218 201.521 245.28C202.08 247.056 203.856 248.891 202.1 250.707C196.791 256.214 198.508 262.478 199.984 268.922C195.574 269.92 191.762 267.825 187.911 266.309Z" fill="#B36C73"/>
<path d="M220.899 300.286C213.834 301.563 209.104 299.887 209.683 291.467C211.29 291.462 212.895 291.375 214.493 291.208C222.795 289.931 223.952 293.602 220.899 300.286Z" fill="#DFA532"/>
<path d="M277.535 337.176C272.182 333.821 265.856 332.366 259.574 333.046V333.046L259.435 329.195L259.634 329.016C267.018 329.674 275.081 328.716 279.371 336.996C278.763 337.089 278.15 337.149 277.535 337.176V337.176Z" fill="#B36C73"/>
<path d="M277.276 321.215L281.267 327.2C278.334 327.32 275.28 327.2 274.302 323.848C273.604 321.614 275.799 321.554 277.276 321.215Z" fill="#B36C73"/>
<path d="M256.92 329.375L255.164 325.384C260.692 321.394 259.036 326.502 259.535 328.876L259.435 329.195L256.92 329.375Z" fill="#B36C73"/>
<path d="M212.437 270.239C209.404 271.696 207.328 271.815 205.233 270.239C207.328 268.623 209.404 268.942 212.437 270.239Z" fill="#B36C73"/>
<path d="M234.549 272.613C234.689 272.833 234.908 273.072 234.888 273.292C234.868 273.511 234.589 273.691 234.429 273.89L234.549 272.613Z" fill="#B36C73"/>
<path d="M350.616 294.181C343.751 295.019 337.205 297.592 328.963 296.016C336.786 289.532 343.991 293.842 350.616 294.181Z" fill="#F6ECE0"/>
<path d="M305.953 294.241C312.06 293.443 318.047 292.445 326.01 294.62C317.548 299.368 311.821 293.403 305.953 294.241Z" fill="#F6ECE0"/>
<path d="M291.365 277.322V275.327C302.321 275.327 302.321 275.327 300.505 291.567C297.512 286.12 303.08 275.686 291.365 277.322Z" fill="#F6ECE0"/>
<path d="M323.296 107.836H327.287C328.824 109.213 329.183 110.789 326.888 111.368C324.234 112.006 323.495 109.971 323.296 107.836Z" fill="#F6ECE0"/>
<path d="M210.242 175.571C207.029 176.608 203.197 179.9 200.563 176.728C197.33 172.738 203.477 170.483 203.996 166.892C205.66 167.727 207.098 168.953 208.186 170.464C209.273 171.975 209.979 173.728 210.242 175.571V175.571Z" fill="#685C58"/>
<path d="M181.604 200.071C178.97 197.257 176.316 194.444 173.622 191.611C176.735 188.599 174.6 182.853 179.988 180.339C183.44 186.743 181.066 193.527 181.604 200.071Z" fill="#B36C73"/>
<path d="M256.92 329.375L259.435 329.195L259.555 333.046H257.559C257.279 331.769 257.1 330.572 256.92 329.375Z" fill="#DE8386"/>
</svg>
